<svg width="39" height="38" viewBox="0 0 39 38" fill="none" xmlns="http://www.w3.org/2000/svg">
<g clip-path="url(#clip0_379_27872)">
<path d="M0.75 19C0.75 14.4999 0.751676 11.2023 1.09992 8.67844C1.44491 6.17823 2.11724 4.54917 3.37911 3.31966C4.6437 2.08749 6.32363 1.42883 8.89902 1.09146C11.494 0.751514 14.8831 0.75 19.5 0.75C24.1169 0.75 27.506 0.751514 30.101 1.09146C32.6764 1.42883 34.3563 2.08749 35.6209 3.31966C36.8828 4.54917 37.5551 6.17823 37.9001 8.67844C38.2483 11.2023 38.25 14.4999 38.25 19C38.25 23.5001 38.2483 26.7977 37.9001 29.3216C37.5551 31.8218 36.8828 33.4508 35.6209 34.6803C34.3563 35.9125 32.6764 36.5712 30.101 36.9085C27.506 37.2485 24.1169 37.25 19.5 37.25C14.8831 37.25 11.494 37.2485 8.89902 36.9085C6.32363 36.5712 4.6437 35.9125 3.37911 34.6803C2.11724 33.4508 1.44491 31.8218 1.09992 29.3216C0.751676 26.7977 0.75 23.5001 0.75 19Z" stroke="#FBFBFB" stroke-width="1.5"/>
<path d="M9.75 25.017L11.6071 26.917L16.25 22.167" stroke="#FBFBFB" stroke-width="1.5" stroke-linecap="round" stroke-linejoin="round"/>
<path d="M9.75 13.933L11.6071 15.833L16.25 11.083" stroke="#FBFBFB" stroke-width="1.5" stroke-linecap="round" stroke-linejoin="round"/>
<path d="M21.125 14.25L29.25 14.25" stroke="#FBFBFB" stroke-width="1.5" stroke-linecap="round"/>
<path d="M21.125 25.333H29.25" stroke="#FBFBFB" stroke-width="1.5" stroke-linecap="round"/>
</g>
<defs>
<clipPath id="clip0_379_27872">
<rect width="39" height="38" fill="white"/>
</clipPath>
</defs>
</svg>
