<svg width="39" height="39" viewBox="0 0 39 39" fill="none" xmlns="http://www.w3.org/2000/svg">
<path d="M4.875 16.9271C4.875 11.731 4.875 9.13295 5.48846 8.25891C6.10193 7.38488 8.54478 6.54868 13.4305 4.87629L14.3613 4.55766C16.9081 3.68589 18.1815 3.25 19.5 3.25C20.8185 3.25 22.0919 3.68589 24.6387 4.55767L25.5695 4.87629C30.4552 6.54868 32.8981 7.38488 33.5115 8.25891C34.125 9.13295 34.125 11.731 34.125 16.9271C34.125 17.7119 34.125 18.5631 34.125 19.486C34.125 28.6478 27.2367 33.0939 22.9148 34.9818C21.7425 35.4939 21.1563 35.75 19.5 35.75C17.8437 35.75 17.2575 35.4939 16.0852 34.9818C11.7633 33.0939 4.875 28.6478 4.875 19.486C4.875 18.5631 4.875 17.7119 4.875 16.9271Z" stroke="#FBFBFB" stroke-width="1.5"/>
<path d="M15.4375 20.15L17.7589 22.75L23.5625 16.25" stroke="#FBFBFB" stroke-width="1.5" stroke-linecap="round" stroke-linejoin="round"/>
</svg>
