<svg width="39" height="39" viewBox="0 0 39 39" fill="none" xmlns="http://www.w3.org/2000/svg">
<path d="M23.5625 10.5625H28.4375M28.4375 10.5625H33.3125M28.4375 10.5625V15.4375M28.4375 10.5625V5.6875" stroke="#FBFBFB" stroke-width="1.5" stroke-linecap="round"/>
<path d="M4.0625 10.5625C4.0625 7.49837 4.0625 5.96631 5.0144 5.0144C5.96631 4.0625 7.49837 4.0625 10.5625 4.0625C13.6266 4.0625 15.1587 4.0625 16.1106 5.0144C17.0625 5.96631 17.0625 7.49837 17.0625 10.5625C17.0625 13.6266 17.0625 15.1587 16.1106 16.1106C15.1587 17.0625 13.6266 17.0625 10.5625 17.0625C7.49837 17.0625 5.96631 17.0625 5.0144 16.1106C4.0625 15.1587 4.0625 13.6266 4.0625 10.5625Z" stroke="#FBFBFB" stroke-width="1.5"/>
<path d="M21.9375 28.4375C21.9375 25.3734 21.9375 23.8413 22.8894 22.8894C23.8413 21.9375 25.3734 21.9375 28.4375 21.9375C31.5016 21.9375 33.0337 21.9375 33.9856 22.8894C34.9375 23.8413 34.9375 25.3734 34.9375 28.4375C34.9375 31.5016 34.9375 33.0337 33.9856 33.9856C33.0337 34.9375 31.5016 34.9375 28.4375 34.9375C25.3734 34.9375 23.8413 34.9375 22.8894 33.9856C21.9375 33.0337 21.9375 31.5016 21.9375 28.4375Z" stroke="#FBFBFB" stroke-width="1.5"/>
<path d="M4.0625 28.4375C4.0625 25.3734 4.0625 23.8413 5.0144 22.8894C5.96631 21.9375 7.49837 21.9375 10.5625 21.9375C13.6266 21.9375 15.1587 21.9375 16.1106 22.8894C17.0625 23.8413 17.0625 25.3734 17.0625 28.4375C17.0625 31.5016 17.0625 33.0337 16.1106 33.9856C15.1587 34.9375 13.6266 34.9375 10.5625 34.9375C7.49837 34.9375 5.96631 34.9375 5.0144 33.9856C4.0625 33.0337 4.0625 31.5016 4.0625 28.4375Z" stroke="#FBFBFB" stroke-width="1.5"/>
</svg>
