<svg width="49" height="49" viewBox="0 0 49 49" fill="none" xmlns="http://www.w3.org/2000/svg">
<circle cx="24.5002" cy="20.4167" r="14.2917" stroke="#FBFBFB" stroke-width="1.5"/>
<path d="M8.1665 33.8144C12.022 38.1221 17.6248 40.833 23.8608 40.833C35.4895 40.833 44.9165 31.406 44.9165 19.7773C44.9165 13.5413 42.2056 7.93845 37.8979 4.08301" stroke="#FBFBFB" stroke-width="1.5" stroke-linecap="round"/>
<path d="M14.2915 9.29527C15.4863 10.4235 17.9474 13.5075 18.2342 16.8171C18.5022 19.9107 20.4712 22.4245 23.479 22.4585C24.6349 22.4716 25.804 21.6056 25.801 20.4068C25.8001 20.0361 25.7411 19.6571 25.6487 19.3084C25.5203 18.8234 25.5089 18.2655 25.7759 17.6947C26.7098 15.6979 28.5465 15.1615 30.0019 14.0771C30.6474 13.5962 31.2362 13.0888 31.4959 12.6801C32.2127 11.5518 32.9296 9.29527 32.5712 8.16699" stroke="#FBFBFB" stroke-width="1.5"/>
<path d="M38.7915 22.458C38.3432 23.7252 38.0259 27.0518 32.9635 27.1046C32.9635 27.1046 28.4805 27.1046 27.1356 29.639C26.0596 31.6666 26.6873 33.8632 27.1356 34.708" stroke="#FBFBFB" stroke-width="1.5"/>
<path d="M24.5 44.9163V40.833" stroke="#FBFBFB" stroke-width="1.5" stroke-linecap="round"/>
<path d="M24.4998 44.917H20.4165" stroke="#FBFBFB" stroke-width="1.5" stroke-linecap="round"/>
<path d="M28.5833 44.917H24.5" stroke="#FBFBFB" stroke-width="1.5" stroke-linecap="round"/>
</svg>
