<svg xmlns="http://www.w3.org/2000/svg" width="162" height="145" viewBox="0 0 162 145" fill="none">
  <g filter="url(#filter0_d_592_20196)">
    <path fill-rule="evenodd" clip-rule="evenodd" d="M74.2273 6.87799C74.0683 5.92465 68.4186 7.02465 69.6232 7.98715C70.418 8.61965 74.3848 7.82979 74.2273 6.87799ZM92.0828 100.778C92.9557 101.569 95.8906 101.333 96.3675 100.223C96.8429 99.1142 91.2987 100.071 92.0828 100.778ZM153.738 68.9735C154.375 68.4969 153.421 65.9608 152.866 66.3565C152.312 66.7537 152.312 62.3888 152.709 60.4103C153.103 58.4258 152.866 58.661 151.835 59.6938C150.803 60.7251 149.693 57.7123 149.455 56.9178C149.215 56.1249 148.024 53.9051 146.677 54.2213C145.327 54.5406 146.2 52.3177 144.933 52.5591C143.66 52.7928 143.426 50.7303 143.66 48.8298C143.898 46.9246 142.788 48.4326 142.232 47.6427C141.677 46.8467 141.044 47.4823 140.167 47.8001C139.294 48.1194 139.056 46.1363 139.294 45.3388C139.534 44.5474 139.137 43.5941 137.947 42.7233C136.757 41.8524 136.677 41.1359 136.757 40.1031C136.838 39.0749 130.012 35.5839 128.505 35.2677C126.996 34.953 128.268 33.3641 127.631 32.8126C126.996 32.2564 126.759 30.1924 126.759 28.4492C126.759 26.706 124.538 26.1499 124.618 24.7214C124.697 23.2945 123.985 21.947 124.141 20.3581C124.3 18.7738 121.837 18.3796 121.761 17.5073C121.681 16.6334 120.33 17.4263 118.983 17.5867C117.632 17.7456 117.715 15.8389 117.872 14.0163C118.03 12.1937 117.316 9.17935 116.204 8.30852C115.093 7.43769 115.015 4.42032 114.46 3.94671C113.904 3.46852 112.077 5.53407 112.155 6.56227C112.238 7.59352 111.998 8.78366 111.285 9.41769C110.57 10.0532 111.762 12.5114 110.807 13.3853C109.855 14.2577 110.729 17.7456 110.491 19.7287C110.254 21.7102 110.332 23.8521 109.378 25.2012C108.428 26.5487 108.268 28.6921 106.362 29.4056C104.459 30.1176 101.92 28.6112 101.999 27.5799C102.077 26.5487 99.934 25.9131 98.8242 26.0735C97.7145 26.2339 97.0786 24.6451 95.3329 23.2991C93.5857 21.9501 92.2405 23.6138 91.6826 22.0295C91.1277 20.4467 90.5728 20.2069 89.301 19.3345C88.0353 18.4637 88.4297 18.4637 89.619 17.5882C90.8098 16.7174 90.5728 15.6052 89.9354 14.5739C89.301 13.5396 90.6508 13.781 92.239 12.9056C93.8242 12.0363 92.239 11.0035 93.4283 10.5284C94.6175 10.0517 93.9067 9.02046 92.6334 8.78213C91.3646 8.5438 91.7621 10.0517 91.2852 10.2091C90.8082 10.368 90.3313 8.22602 89.9339 8.30852C89.538 8.38644 88.0338 10.4459 87.2374 9.41769C86.4425 8.38644 81.9989 7.51255 80.2532 7.2788C78.5091 7.03741 77.9542 4.81755 76.9209 5.21324C75.8891 5.61352 77.0783 6.32546 78.2691 7.59352C79.4584 8.8631 74.3024 9.73241 72.7952 9.26185C71.2895 8.78366 73.0336 10.371 71.7634 10.29C70.4931 10.2106 70.2562 12.4289 69.2244 13.5412C68.1925 14.6534 68.9064 15.4448 67.7936 16.1582C66.6823 16.8732 66.6059 17.6646 67.9525 19.1756C69.3023 20.6835 67.3182 20.7614 66.1259 19.5713C64.9381 18.3842 63.7458 18.3842 63.8269 19.7302C63.9048 21.0777 62.3976 20.4467 62.6361 18.9373C62.8761 17.4294 60.9699 18.1413 60.655 17.2705C60.334 16.3981 58.6693 14.9712 57.636 15.0491C56.6057 15.1301 56.6057 16.2407 55.5739 16.2407C54.5406 16.2407 54.3037 16.7938 54.4611 17.906C54.6216 19.0152 52.8759 17.8251 51.6836 17.9855C50.4944 18.1413 51.6836 19.4903 51.0493 19.5698C50.4164 19.6492 50.4164 20.7599 49.3815 20.7599C48.3497 20.7599 48.5118 23.0577 48.6692 24.2478C48.8267 25.4364 47.081 23.6917 46.0507 24.0126C45.0174 24.3303 46.2877 25.3601 46.6056 26.7106C46.9236 28.0566 46.0507 27.9771 45.4943 28.5333C44.9394 29.0878 44.062 27.0253 44.062 25.8352C44.062 24.6451 42.7153 25.7557 41.2891 27.2621C39.8584 28.7685 41.7645 31.0694 41.1286 31.4651C40.4958 31.8608 37.6373 34.5603 35.9726 36.5419C34.3065 38.5234 30.7326 37.3378 29.6228 38.2881C28.5115 39.2414 27.3223 38.5234 26.211 39.3973C25.0997 40.2696 23.0391 41.938 22.8007 40.9037C22.5653 39.8739 19.7052 40.6699 18.516 41.938C17.3252 43.206 15.4221 44.3152 14.0708 44.3962C12.7226 44.4741 12.7226 46.5351 12.1677 47.0133C11.6128 47.4884 11.7687 45.3434 11.7687 44.7934C11.7687 44.2388 10.5 45.7437 9.94511 47.409C9.39023 49.0742 11.2949 49.7083 10.1056 51.453C8.9133 53.2008 7.80201 54.9409 9.46971 57.1638C11.1359 59.3837 12.0867 60.8122 11.5333 61.9198C10.9769 63.0305 9.78766 59.6999 9.39023 60.1002C8.99432 60.4959 10.899 61.9198 10.4236 62.6363C9.94511 63.3483 8.23766 59.9352 7.88455 60.7312C7.56354 61.4477 11.4523 66.8392 11.5349 68.8192C11.6143 70.8023 14.7082 72.7074 14.5508 75.5629C14.3918 78.4183 17.2503 83.0184 17.7257 83.7319C18.1996 84.4469 16.6129 86.3474 16.9293 88.4909C17.2503 90.6298 16.217 91.4242 14.8687 91.4242C13.519 91.4242 14.3154 93.6456 15.818 93.8045C17.3267 93.9634 16.7719 94.9947 18.438 96.1069C20.1042 97.2161 24.0709 96.8204 25.4207 96.8204C26.7704 96.8204 27.1694 94.7548 28.993 94.6815C30.8182 94.6005 30.6577 94.0444 31.5305 92.9306C32.4034 91.823 36.5306 92.1392 40.7373 92.3806C44.9425 92.6159 46.7661 91.3479 47.3989 89.6016C47.9416 88.1135 50.9713 88.0173 52.1606 86.9051C53.3513 85.7959 54.3831 85.718 57.4786 85.8738C60.5725 86.0327 63.4309 84.369 65.4135 83.576C67.3977 82.7801 71.048 83.0994 72.9526 82.6242C74.8573 82.1445 75.1737 85.0015 77.3152 84.7647C79.4568 84.5233 80.4107 85.3987 81.522 85.3192C82.6333 85.2383 82.4743 86.1122 83.5856 86.3474C84.6969 86.5873 84.5394 87.5391 83.8256 88.5719C83.1087 89.6001 85.4902 89.5222 86.9974 91.5847C88.5046 93.6472 87.0769 93.9634 87.8718 95.5508C88.6636 97.1351 89.2185 96.7394 90.8067 94.5195C92.3934 92.2997 94.1375 93.7266 94.376 91.823C94.6145 89.9194 96.2837 87.6995 97.395 88.6513C98.5063 89.6001 96.5986 90.0752 95.8863 93.7266C95.1724 97.3765 93.9036 95.4713 93.6652 96.4995C93.4267 97.5308 96.9976 98.0869 96.9976 96.1817C96.9976 94.2781 97.6319 93.4073 98.9832 95.149C100.331 96.8998 98.1868 98.3252 98.5063 99.1197C98.8212 99.9111 100.33 98.8783 101.125 98.9577C102.536 99.1013 104.457 102.212 104.139 103.879C103.823 105.544 103.346 107.128 106.042 108.48C108.742 109.828 107.71 110.063 109.694 110.063C111.678 110.063 115.804 111.651 116.915 112.602C118.027 113.553 120.885 111.887 121.438 109.982C121.995 108.083 124.058 109.906 122.947 110.538C121.833 111.175 123.502 112.682 123.581 111.651C123.659 110.618 124.136 109.748 124.534 110.939C124.93 112.126 126.36 112.126 126.915 113.077C127.472 114.031 128.105 114.743 128.105 113.95C128.105 113.157 128.423 112.443 129.693 111.967C130.96 111.489 131.755 110.616 133.103 109.506C134.453 108.396 140.008 108.158 140.563 108.158C141.118 108.158 141.436 103.404 141.752 100.942C142.07 98.4826 144.134 98.0869 144.45 95.4698C144.768 92.8527 147.544 88.0142 148.259 87.779C148.975 87.5391 150.326 86.8272 150.401 85.3192C150.482 83.8113 152.305 82.143 152.305 80.3219C152.305 78.4977 153.34 76.3558 153.18 75.8027C153.019 75.2481 152.383 73.4973 153.576 72.2308C154.773 70.9581 153.103 69.4502 153.738 68.9735ZM127.949 122.822C125.809 123.063 122.592 120.874 121.837 121.083C120.966 121.317 124.616 126.791 123.506 128.218C122.395 129.647 126.759 133.533 128.268 133.772C129.772 134.007 129.217 132.264 130.251 132.342C131.284 132.423 130.887 131.31 131.046 130.517C131.204 129.726 132.236 131.391 133.109 130.915C133.98 130.438 132.871 127.027 134.141 127.027C135.41 127.027 134.379 122.908 133.982 121.559C133.583 120.208 130.093 122.588 127.949 122.822Z" fill="#B0B8FF"/>
    <path d="M74.2273 6.87799L74.4434 6.84224L74.4433 6.84196L74.2273 6.87799ZM69.6232 7.98715L69.4864 8.15825L69.4868 8.15853L69.6232 7.98715ZM92.0828 100.778L92.23 100.616L92.2295 100.615L92.0828 100.778ZM96.3675 100.223L96.5687 100.31L96.5688 100.31L96.3675 100.223ZM153.738 68.9735L153.607 68.7981L153.606 68.7985L153.738 68.9735ZM152.866 66.3565L152.739 66.1781L152.739 66.1784L152.866 66.3565ZM152.709 60.4103L152.924 60.4535L152.924 60.453L152.709 60.4103ZM151.835 59.6938L151.99 59.8487L151.99 59.8486L151.835 59.6938ZM149.455 56.9178L149.664 56.8549L149.664 56.8544L149.455 56.9178ZM146.677 54.2213L146.627 54.0081L146.627 54.0082L146.677 54.2213ZM144.933 52.5591L144.973 52.7745L144.974 52.7742L144.933 52.5591ZM143.66 48.8298L143.442 48.8026L143.442 48.803L143.66 48.8298ZM142.232 47.6427L142.052 47.768L142.053 47.7688L142.232 47.6427ZM140.167 47.8001L140.092 47.5941L140.092 47.5944L140.167 47.8001ZM139.294 45.3388L139.084 45.2753L139.084 45.2761L139.294 45.3388ZM137.947 42.7233L138.077 42.5465L138.077 42.5465L137.947 42.7233ZM136.757 40.1031L136.538 40.0859L136.538 40.0863L136.757 40.1031ZM128.505 35.2677L128.55 35.0533L128.55 35.0533L128.505 35.2677ZM127.631 32.8126L127.486 32.9773L127.487 32.9782L127.631 32.8126ZM124.618 24.7214L124.399 24.7093V24.7093L124.618 24.7214ZM124.141 20.3581L123.923 20.3362L123.923 20.3367L124.141 20.3581ZM121.761 17.5073L121.979 17.4882L121.979 17.4874L121.761 17.5073ZM118.983 17.5867L119.009 17.8042L119.009 17.8042L118.983 17.5867ZM114.46 3.94671L114.318 4.11282L114.318 4.1133L114.46 3.94671ZM112.155 6.56227L111.937 6.57883L111.937 6.57974L112.155 6.56227ZM111.285 9.41769L111.431 9.58142L111.431 9.58128L111.285 9.41769ZM110.807 13.3853L110.659 13.2237L110.659 13.2238L110.807 13.3853ZM110.491 19.7287L110.273 19.7025L110.273 19.7027L110.491 19.7287ZM109.378 25.2012L109.199 25.0747L109.199 25.075L109.378 25.2012ZM106.362 29.4056L106.439 29.6107L106.439 29.6107L106.362 29.4056ZM101.999 27.5799L102.218 27.5967L102.218 27.5964L101.999 27.5799ZM95.3329 23.2991L95.1991 23.4724L95.1992 23.4725L95.3329 23.2991ZM91.6826 22.0295L91.4759 22.102L91.476 22.1022L91.6826 22.0295ZM89.301 19.3345L89.1769 19.5149L89.1771 19.5151L89.301 19.3345ZM89.619 17.5882L89.4897 17.4115L89.4891 17.4119L89.619 17.5882ZM89.9354 14.5739L89.7487 14.6884L89.7491 14.6891L89.9354 14.5739ZM92.239 12.9056L92.1337 12.7136L92.1333 12.7138L92.239 12.9056ZM93.4283 10.5284L93.5095 10.7318L93.5097 10.7317L93.4283 10.5284ZM92.6334 8.78213L92.5929 8.99738L92.5931 8.99741L92.6334 8.78213ZM91.2852 10.2091L91.2165 10.0011L91.2159 10.0013L91.2852 10.2091ZM89.9339 8.30852L89.9762 8.52342L89.9784 8.52296L89.9339 8.30852ZM87.2374 9.41769L87.0639 9.55139L87.0643 9.5518L87.2374 9.41769ZM80.2532 7.2788L80.2232 7.49575L80.2242 7.49588L80.2532 7.2788ZM76.9209 5.21324L76.8425 5.00871L76.8417 5.00905L76.9209 5.21324ZM78.2691 7.59352L78.4289 7.44379L78.4287 7.44359L78.2691 7.59352ZM72.7952 9.26185L72.7289 9.4706L72.7299 9.47092L72.7952 9.26185ZM71.7634 10.29L71.7773 10.0715L71.777 10.0715L71.7634 10.29ZM67.7936 16.1582L67.6754 15.9739L67.6751 15.9741L67.7936 16.1582ZM67.9525 19.1756L67.7891 19.3213L67.7894 19.3217L67.9525 19.1756ZM66.1259 19.5713L65.971 19.7262L65.9711 19.7263L66.1259 19.5713ZM63.8269 19.7302L64.0455 19.7175L64.0455 19.717L63.8269 19.7302ZM62.6361 18.9373L62.4198 18.9029L62.4197 18.9031L62.6361 18.9373ZM60.655 17.2705L60.861 17.196L60.8605 17.1948L60.655 17.2705ZM57.636 15.0491L57.6195 14.8307L57.6188 14.8307L57.636 15.0491ZM54.4611 17.906L54.2442 17.9367L54.2443 17.9374L54.4611 17.906ZM51.6836 17.9855L51.7121 18.2026L51.7128 18.2025L51.6836 17.9855ZM51.0493 19.5698L51.022 19.3525L51.022 19.3525L51.0493 19.5698ZM48.6692 24.2478L48.4521 24.2766L48.4521 24.2766L48.6692 24.2478ZM46.0507 24.0126L46.1151 24.2219L46.1158 24.2217L46.0507 24.0126ZM46.6056 26.7106L46.3924 26.7608L46.3925 26.761L46.6056 26.7106ZM45.4943 28.5333L45.3395 28.3783L45.4943 28.5333ZM41.2891 27.2621L41.4479 27.413L41.4482 27.4127L41.2891 27.2621ZM41.1286 31.4651L41.0129 31.2791L41.0125 31.2794L41.1286 31.4651ZM35.9726 36.5419L36.1403 36.6828L36.1403 36.6827L35.9726 36.5419ZM29.6228 38.2881L29.4804 38.1218L29.4802 38.1219L29.6228 38.2881ZM26.211 39.3973L26.3462 39.5696L26.3464 39.5694L26.211 39.3973ZM22.8007 40.9037L22.5872 40.9525L22.5872 40.9529L22.8007 40.9037ZM18.516 41.938L18.6756 42.0879L18.6757 42.0878L18.516 41.938ZM14.0708 44.3962L14.0834 44.6148L14.0839 44.6148L14.0708 44.3962ZM12.1677 47.0133L12.3101 47.1796L12.3107 47.1792L12.1677 47.0133ZM10.1056 51.453L10.2865 51.5764L10.2866 51.5763L10.1056 51.453ZM9.46971 57.1638L9.29452 57.2953L9.29455 57.2953L9.46971 57.1638ZM11.5333 61.9198L11.7291 62.0179L11.7293 62.0177L11.5333 61.9198ZM9.39023 60.1002L9.54505 60.2551L9.54564 60.2545L9.39023 60.1002ZM10.4236 62.6363L10.6053 62.7585L10.6061 62.7574L10.4236 62.6363ZM7.88455 60.7312L8.08443 60.8207L8.08475 60.82L7.88455 60.7312ZM11.5349 68.8192L11.7537 68.8105L11.7537 68.8101L11.5349 68.8192ZM14.5508 75.5629L14.7695 75.575L14.7695 75.5749L14.5508 75.5629ZM17.7257 83.7319L17.9083 83.6109L17.908 83.6104L17.7257 83.7319ZM16.9293 88.4909L16.7126 88.5229L16.7127 88.5234L16.9293 88.4909ZM15.818 93.8045L15.795 94.0223L15.7951 94.0223L15.818 93.8045ZM18.438 96.1069L18.3164 96.289L18.3167 96.2892L18.438 96.1069ZM28.993 94.6815L29.0018 94.9003L29.0027 94.9003L28.993 94.6815ZM31.5305 92.9306L31.3585 92.7951L31.3581 92.7955L31.5305 92.9306ZM40.7373 92.3806L40.7248 92.5993L40.7251 92.5993L40.7373 92.3806ZM47.3989 89.6016L47.1932 89.5266L47.193 89.527L47.3989 89.6016ZM52.1606 86.9051L52.0113 86.7448L52.011 86.7451L52.1606 86.9051ZM57.4786 85.8738L57.4898 85.6551L57.4896 85.6551L57.4786 85.8738ZM65.4135 83.576L65.4949 83.7794L65.4951 83.7793L65.4135 83.576ZM72.9526 82.6242L73.0056 82.8367L73.0061 82.8366L72.9526 82.6242ZM77.3152 84.7647L77.3393 84.9823L77.3398 84.9823L77.3152 84.7647ZM81.522 85.3192L81.5376 85.5377L81.5379 85.5377L81.522 85.3192ZM83.5856 86.3474L83.6318 86.1334L83.6309 86.1332L83.5856 86.3474ZM83.8256 88.5719L84.0052 88.6972L84.0057 88.6964L83.8256 88.5719ZM87.8718 95.5508L88.0677 95.4529L88.0676 95.4527L87.8718 95.5508ZM90.8067 94.5195L90.9848 94.647L90.9849 94.6469L90.8067 94.5195ZM97.395 88.6513L97.2525 88.8177L97.2528 88.8179L97.395 88.6513ZM95.8863 93.7266L96.1012 93.7686L96.1012 93.7685L95.8863 93.7266ZM93.6652 96.4995L93.4518 96.4501L93.4518 96.4502L93.6652 96.4995ZM98.9832 95.149L99.1567 95.0153L99.1562 95.0147L98.9832 95.149ZM98.5063 99.1197L98.7098 99.0387L98.7095 99.038L98.5063 99.1197ZM101.125 98.9577L101.147 98.7398L101.147 98.7398L101.125 98.9577ZM104.139 103.879L103.924 103.838L103.924 103.838L104.139 103.879ZM106.042 108.48L105.944 108.676L105.944 108.676L106.042 108.48ZM116.915 112.602L116.773 112.769L116.773 112.769L116.915 112.602ZM121.438 109.982L121.228 109.921L121.228 109.921L121.438 109.982ZM122.947 110.538L122.839 110.348L122.838 110.348L122.947 110.538ZM123.581 111.651L123.8 111.667L123.8 111.667L123.581 111.651ZM124.534 110.939L124.742 110.869L124.742 110.869L124.534 110.939ZM126.915 113.077L126.726 113.188L126.726 113.188L126.915 113.077ZM129.693 111.967L129.77 112.172L129.77 112.172L129.693 111.967ZM133.103 109.506L132.964 109.336L132.964 109.336L133.103 109.506ZM141.752 100.942L141.535 100.914L141.535 100.914L141.752 100.942ZM144.45 95.4698L144.233 95.4434L144.233 95.4435L144.45 95.4698ZM148.259 87.779L148.328 87.987L148.329 87.9866L148.259 87.779ZM150.401 85.3192L150.182 85.3075L150.182 85.3084L150.401 85.3192ZM153.18 75.8027L152.969 75.8636L152.97 75.8638L153.18 75.8027ZM153.576 72.2308L153.735 72.3809L153.735 72.3808L153.576 72.2308ZM127.949 122.822L127.925 122.604L127.924 122.604L127.949 122.822ZM121.837 121.083L121.894 121.295L121.896 121.295L121.837 121.083ZM123.506 128.218L123.679 128.353L123.679 128.353L123.506 128.218ZM128.268 133.772L128.234 133.988L128.234 133.988L128.268 133.772ZM130.251 132.342L130.268 132.123L130.267 132.123L130.251 132.342ZM131.046 130.517L130.831 130.474L130.831 130.474L131.046 130.517ZM133.109 130.915L133.214 131.107L133.214 131.107L133.109 130.915ZM133.982 121.559L134.192 121.497L134.192 121.497L133.982 121.559ZM74.4433 6.84196C74.4032 6.60096 74.1967 6.473 74.0076 6.40601C73.809 6.33569 73.5539 6.30306 73.278 6.29484C72.7222 6.27826 72.0204 6.35943 71.3678 6.50003C70.7194 6.63972 70.092 6.84393 69.6971 7.08728C69.5068 7.2046 69.3256 7.35774 69.2606 7.55571C69.2252 7.66341 69.2267 7.77772 69.2718 7.8883C69.315 7.99417 69.3924 8.08308 69.4864 8.15825L69.7599 7.81605C69.7034 7.77091 69.6837 7.73843 69.6774 7.72291C69.673 7.71211 69.6726 7.70502 69.6767 7.69238C69.6907 7.64969 69.7545 7.56644 69.9269 7.46018C70.2576 7.25637 70.8267 7.06469 71.46 6.92823C72.0892 6.79269 72.7543 6.71745 73.2649 6.73267C73.5222 6.74034 73.7251 6.77067 73.8613 6.8189C73.9289 6.84284 73.9692 6.86748 73.9911 6.8868C74.0103 6.9038 74.011 6.91247 74.0113 6.91401L74.4433 6.84196ZM69.4868 8.15853C69.6255 8.26889 69.8136 8.33483 70.0125 8.37484C70.2153 8.41565 70.4502 8.43353 70.7 8.43354C71.2 8.43357 71.7815 8.36198 72.3297 8.24051C72.8761 8.11945 73.404 7.94563 73.7912 7.73395C73.9839 7.62858 74.1547 7.50688 74.274 7.36689C74.3949 7.22502 74.477 7.04563 74.4434 6.84224L74.0112 6.91373C74.017 6.94829 74.0096 7.00179 73.9406 7.08283C73.8699 7.16575 73.7505 7.25697 73.581 7.34962C73.2439 7.53397 72.7599 7.69654 72.235 7.81286C71.7118 7.92877 71.1625 7.99554 70.7 7.99551C70.4687 7.9955 70.2645 7.97876 70.0989 7.94542C69.9292 7.91128 69.8196 7.86354 69.7595 7.81577L69.4868 8.15853ZM91.9357 100.94C92.1982 101.178 92.5925 101.322 93.0153 101.397C93.4438 101.473 93.9285 101.483 94.3975 101.431C94.8659 101.38 95.3293 101.266 95.7121 101.088C96.0903 100.912 96.419 100.658 96.5687 100.31L96.1663 100.137C96.0776 100.343 95.8606 100.535 95.5271 100.691C95.1982 100.844 94.7838 100.948 94.3498 100.996C93.9164 101.043 93.4739 101.033 93.0917 100.966C92.7038 100.897 92.4039 100.773 92.23 100.616L91.9357 100.94ZM96.5688 100.31C96.6126 100.207 96.6307 100.095 96.6008 99.9828C96.5709 99.8703 96.5004 99.7857 96.4194 99.7247C96.267 99.6102 96.0441 99.554 95.8156 99.5254C95.3457 99.4664 94.6987 99.5073 94.0761 99.603C93.4527 99.6989 92.828 99.8536 92.4023 100.036C92.1968 100.123 92.0037 100.231 91.8924 100.366C91.8334 100.438 91.7815 100.536 91.7883 100.655C91.7952 100.776 91.8596 100.872 91.9361 100.941L92.2295 100.615C92.2081 100.596 92.2239 100.601 92.2256 100.631C92.2272 100.659 92.2136 100.665 92.2303 100.645C92.2702 100.597 92.3779 100.522 92.5744 100.438C92.9529 100.277 93.5375 100.129 94.1427 100.036C94.7487 99.9428 95.3496 99.9084 95.7611 99.96C95.9732 99.9866 96.0994 100.032 96.1561 100.075C96.1796 100.093 96.1788 100.1 96.1775 100.095C96.1762 100.09 96.1818 100.101 96.1662 100.137L96.5688 100.31ZM153.869 69.1489C153.998 69.0526 154.074 68.9138 154.116 68.7702C154.159 68.6268 154.172 68.4654 154.168 68.3017C154.158 67.9742 154.075 67.6018 153.956 67.2647C153.837 66.9295 153.675 66.6083 153.495 66.3915C153.406 66.2845 153.298 66.1855 153.173 66.1335C153.036 66.0762 152.879 66.0789 152.739 66.1781L152.994 66.5348C152.998 66.5313 152.997 66.5333 152.993 66.5337C152.989 66.534 152.992 66.5326 153.005 66.538C153.036 66.5508 153.089 66.5888 153.158 66.6714C153.293 66.8337 153.433 67.1021 153.543 67.411C153.652 67.7181 153.722 68.0443 153.73 68.3141C153.733 68.449 153.721 68.5608 153.696 68.6458C153.671 68.7306 153.637 68.7754 153.607 68.7981L153.869 69.1489ZM152.739 66.1784C152.745 66.1738 152.787 66.1511 152.841 66.1702C152.88 66.1838 152.886 66.2064 152.871 66.1815C152.841 66.1331 152.803 66.0219 152.767 65.8329C152.699 65.4672 152.659 64.9118 152.65 64.2709C152.63 62.9904 152.729 61.4217 152.924 60.4535L152.494 60.3672C152.291 61.3775 152.192 62.9804 152.212 64.2776C152.222 64.9257 152.261 65.5106 152.337 65.9134C152.373 66.1087 152.423 66.2888 152.497 66.4108C152.535 66.4711 152.597 66.5487 152.697 66.5836C152.812 66.6239 152.918 66.5888 152.994 66.5345L152.739 66.1784ZM152.924 60.453C153.022 59.957 153.084 59.5875 153.102 59.3314C153.111 59.205 153.111 59.0907 153.093 58.997C153.076 58.9109 153.03 58.7788 152.894 58.7196C152.764 58.6636 152.64 58.7123 152.569 58.7484C152.489 58.7893 152.405 58.8525 152.321 58.9238C152.151 59.0674 151.935 59.2837 151.68 59.539L151.99 59.8486C152.25 59.5875 152.451 59.3871 152.603 59.2582C152.68 59.1932 152.734 59.1561 152.768 59.1384C152.813 59.1159 152.779 59.1475 152.72 59.1215C152.652 59.0925 152.654 59.0376 152.663 59.0814C152.67 59.1176 152.674 59.1859 152.665 59.3004C152.649 59.5261 152.593 59.8714 152.494 60.3677L152.924 60.453ZM151.68 59.5389C151.577 59.6416 151.49 59.6777 151.421 59.6856C151.351 59.6936 151.27 59.676 151.173 59.6184C150.969 59.4976 150.749 59.233 150.535 58.8774C150.112 58.1763 149.781 57.2443 149.664 56.8549L149.245 56.9808C149.366 57.3858 149.71 58.3574 150.16 59.1035C150.381 59.4715 150.647 59.8164 150.949 59.9953C151.105 60.0876 151.282 60.1423 151.471 60.1208C151.661 60.0992 151.834 60.0038 151.99 59.8487L151.68 59.5389ZM149.664 56.8544C149.536 56.4309 149.165 55.6526 148.651 55.0161C148.394 54.697 148.092 54.4024 147.755 54.2081C147.416 54.0122 147.032 53.913 146.627 54.0081L146.727 54.4345C146.996 54.3715 147.266 54.4312 147.536 54.5874C147.809 54.7451 148.072 54.9958 148.31 55.2912C148.789 55.8838 149.133 56.6118 149.245 56.9813L149.664 56.8544ZM146.627 54.0082C146.482 54.0424 146.387 54.0377 146.325 54.0205C146.267 54.0044 146.223 53.9736 146.184 53.9255C146.094 53.813 146.045 53.6277 145.988 53.3715C145.937 53.1452 145.878 52.8498 145.73 52.6371C145.651 52.5226 145.542 52.4243 145.393 52.3689C145.245 52.3144 145.078 52.3085 144.892 52.3439L144.974 52.7742C145.105 52.7493 145.188 52.7601 145.24 52.7797C145.291 52.7984 145.332 52.8317 145.37 52.8867C145.458 53.0129 145.502 53.208 145.56 53.4674C145.612 53.6968 145.677 53.9923 145.842 54.1992C145.932 54.3108 146.051 54.3994 146.208 54.4428C146.362 54.4851 146.535 54.48 146.728 54.4344L146.627 54.0082ZM144.893 52.3437C144.643 52.3897 144.461 52.3245 144.316 52.1846C144.16 52.0343 144.033 51.7834 143.943 51.4396C143.765 50.7541 143.762 49.7948 143.877 48.8565L143.442 48.803C143.324 49.7653 143.321 50.7875 143.519 51.55C143.618 51.9302 143.773 52.2699 144.012 52.5C144.261 52.7404 144.587 52.8454 144.973 52.7745L144.893 52.3437ZM143.877 48.857C143.908 48.6117 143.918 48.4122 143.908 48.251C143.899 48.0919 143.869 47.9537 143.806 47.8432C143.738 47.724 143.638 47.6495 143.521 47.6151C143.415 47.5838 143.306 47.5895 143.216 47.6007C143.129 47.6118 143.029 47.6333 142.951 47.6477C142.866 47.6635 142.791 47.6743 142.723 47.6745C142.599 47.6748 142.5 47.6434 142.411 47.5166L142.053 47.7688C142.242 48.0369 142.49 48.1132 142.724 48.1125C142.834 48.1122 142.94 48.0953 143.031 48.0784C143.129 48.0602 143.2 48.0443 143.271 48.0353C143.341 48.0265 143.378 48.0296 143.398 48.0354C143.407 48.0381 143.414 48.0404 143.425 48.0601C143.441 48.0885 143.463 48.1512 143.471 48.2774C143.479 48.4015 143.471 48.5716 143.442 48.8026L143.877 48.857ZM142.412 47.5175C142.254 47.2911 142.074 47.1437 141.864 47.0778C141.656 47.0126 141.45 47.0374 141.259 47.0936C141.07 47.149 140.875 47.2417 140.687 47.332C140.493 47.425 140.299 47.5191 140.092 47.5941L140.241 48.006C140.473 47.9221 140.687 47.8176 140.876 47.7269C141.071 47.6336 141.233 47.5575 141.382 47.5139C141.528 47.471 141.639 47.4662 141.733 47.4958C141.825 47.5247 141.933 47.5964 142.052 47.7679L142.412 47.5175ZM140.092 47.5944C140.02 47.6205 139.968 47.6191 139.928 47.6079C139.886 47.5961 139.84 47.5683 139.79 47.514C139.685 47.4002 139.592 47.1991 139.526 46.9351C139.394 46.4081 139.398 45.7541 139.504 45.4016L139.084 45.2761C138.951 45.721 138.955 46.4573 139.101 47.0414C139.174 47.3329 139.29 47.6176 139.468 47.8107C139.559 47.9099 139.672 47.9908 139.81 48.0295C139.949 48.0687 140.095 48.0594 140.242 48.0057L140.092 47.5944ZM139.504 45.4024C139.783 44.481 139.299 43.4418 138.077 42.5465L137.818 42.9C138.974 43.7464 139.285 44.6139 139.084 45.2753L139.504 45.4024ZM138.077 42.5465C137.502 42.1264 137.219 41.7606 137.08 41.396C136.94 41.027 136.936 40.6313 136.975 40.1199L136.538 40.0863C136.498 40.6077 136.494 41.0866 136.671 41.5518C136.85 42.0214 137.202 42.4493 137.818 42.9L138.077 42.5465ZM136.975 40.1203C136.985 39.9954 136.941 39.8768 136.885 39.776C136.827 39.6728 136.745 39.568 136.647 39.4635C136.452 39.2545 136.173 39.0232 135.843 38.7815C135.18 38.2968 134.278 37.7491 133.332 37.2267C132.385 36.7037 131.388 36.203 130.533 35.8128C129.684 35.426 128.954 35.1381 128.55 35.0533L128.46 35.482C128.81 35.5554 129.498 35.8225 130.351 36.2113C131.196 36.5967 132.183 37.0923 133.121 37.6101C134.059 38.1286 134.943 38.6661 135.584 39.1351C135.906 39.3702 136.159 39.5828 136.327 39.7627C136.411 39.8527 136.468 39.9286 136.503 39.9897C136.538 40.0531 136.538 40.0824 136.538 40.0859L136.975 40.1203ZM128.55 35.0533C128.217 34.984 128.081 34.8559 128.017 34.7294C127.944 34.5872 127.935 34.3966 127.959 34.1504C127.971 34.0291 127.989 33.908 128.007 33.7779C128.024 33.6516 128.04 33.5187 128.043 33.3903C128.05 33.1381 128.009 32.8503 127.774 32.6469L127.487 32.9782C127.571 33.0506 127.611 33.1682 127.605 33.3789C127.603 33.4819 127.589 33.5948 127.573 33.7196C127.556 33.8406 127.536 33.976 127.523 34.1075C127.498 34.3668 127.493 34.6669 127.627 34.9283C127.768 35.2055 128.038 35.3941 128.46 35.4821L128.55 35.0533ZM127.775 32.6479C127.657 32.5444 127.539 32.3514 127.432 32.0648C127.327 31.7831 127.241 31.4328 127.173 31.0388C127.037 30.2513 126.978 29.3127 126.978 28.4492H126.54C126.54 29.329 126.6 30.2939 126.741 31.1133C126.812 31.5227 126.904 31.9017 127.022 32.2178C127.138 32.5291 127.287 32.8027 127.486 32.9773L127.775 32.6479ZM126.978 28.4492C126.978 27.4748 126.351 26.8402 125.812 26.311C125.534 26.0376 125.281 25.7955 125.098 25.5354C124.92 25.2817 124.82 25.027 124.837 24.7336L124.399 24.7093C124.376 25.1301 124.524 25.4807 124.74 25.7874C124.951 26.0878 125.239 26.3615 125.505 26.6236C126.057 27.1654 126.54 27.6805 126.54 28.4492H126.978ZM124.837 24.7336C124.878 23.9853 124.712 23.2605 124.565 22.5559C124.416 21.8418 124.285 21.1372 124.359 20.3795L123.923 20.3367C123.841 21.1679 123.988 21.9315 124.136 22.6452C124.287 23.3682 124.437 24.0306 124.399 24.7093L124.837 24.7336ZM124.359 20.38C124.452 19.4483 123.763 18.8869 123.161 18.4838C122.84 18.2688 122.554 18.1038 122.321 17.9245C122.086 17.743 121.989 17.6056 121.979 17.4882L121.543 17.5264C121.571 17.8451 121.811 18.0841 122.054 18.2714C122.299 18.4608 122.633 18.657 122.917 18.8477C123.526 19.2558 123.989 19.6836 123.923 20.3362L124.359 20.38ZM121.979 17.4874C121.966 17.3496 121.927 17.2233 121.848 17.1201C121.767 17.0149 121.66 16.9517 121.544 16.9181C121.327 16.8554 121.061 16.8902 120.802 16.9448C120.537 17.0008 120.227 17.091 119.919 17.1719C119.604 17.2545 119.279 17.331 118.958 17.3692L119.009 17.8042C119.361 17.7623 119.71 17.6795 120.03 17.5956C120.356 17.51 120.641 17.4265 120.893 17.3734C121.15 17.319 121.32 17.3094 121.422 17.3388C121.465 17.3512 121.486 17.3682 121.5 17.3863C121.515 17.4064 121.535 17.4465 121.543 17.5271L121.979 17.4874ZM118.958 17.3692C118.677 17.4022 118.5 17.3283 118.375 17.1995C118.238 17.0595 118.138 16.8287 118.077 16.5042C117.955 15.8541 118.011 14.9525 118.09 14.0351L117.654 13.9975C117.576 14.9028 117.512 15.8658 117.647 16.585C117.714 16.9451 117.837 17.2751 118.061 17.5049C118.295 17.7458 118.614 17.8507 119.009 17.8042L118.958 17.3692ZM118.09 14.0351C118.172 13.0921 118.028 11.8563 117.725 10.7478C117.574 10.1922 117.38 9.66209 117.151 9.21206C116.924 8.76508 116.653 8.38175 116.34 8.13613L116.069 8.48091C116.312 8.67071 116.547 8.99073 116.761 9.41081C116.973 9.82784 117.157 10.3285 117.303 10.8632C117.596 11.9352 117.73 13.1179 117.654 13.9975L118.09 14.0351ZM116.34 8.13613C116.106 7.95275 115.91 7.6419 115.743 7.24185C115.578 6.8453 115.45 6.38516 115.336 5.92615C115.225 5.47519 115.125 5.01317 115.021 4.64598C114.969 4.46048 114.913 4.289 114.849 4.14566C114.788 4.00672 114.71 3.87152 114.603 3.78013L114.318 4.1133C114.35 4.14031 114.396 4.20301 114.449 4.32313C114.5 4.43886 114.55 4.58761 114.6 4.7652C114.701 5.12418 114.795 5.55973 114.911 6.03116C115.026 6.49455 115.16 6.98163 115.339 7.41056C115.517 7.83599 115.748 8.22888 116.069 8.48091L116.34 8.13613ZM114.603 3.78061C114.475 3.67071 114.319 3.64408 114.171 3.66227C114.029 3.67991 113.883 3.74006 113.745 3.8191C113.469 3.97778 113.173 4.2421 112.906 4.54466C112.637 4.84893 112.388 5.20357 112.209 5.55293C112.034 5.89574 111.913 6.26145 111.937 6.57883L112.374 6.54571C112.359 6.349 112.436 6.07093 112.599 5.75221C112.759 5.44005 112.986 5.1154 113.234 4.83453C113.483 4.55196 113.743 4.32528 113.963 4.19903C114.074 4.13561 114.162 4.1048 114.225 4.097C114.284 4.08974 114.306 4.10317 114.318 4.11281L114.603 3.78061ZM111.937 6.57974C112.017 7.58384 111.776 8.68755 111.14 9.25409L111.431 9.58128C112.219 8.87977 112.458 7.6032 112.373 6.54479L111.937 6.57974ZM111.14 9.25395C110.886 9.47943 110.828 9.83885 110.824 10.1804C110.82 10.5311 110.875 10.9439 110.918 11.3363C110.963 11.7391 110.998 12.1275 110.966 12.4658C110.935 12.804 110.84 13.0578 110.659 13.2237L110.955 13.5469C111.251 13.2759 111.366 12.8947 111.402 12.5063C111.438 12.1181 111.398 11.6884 111.354 11.288C111.308 10.8771 111.259 10.5016 111.262 10.1853C111.266 9.85991 111.327 9.67372 111.431 9.58142L111.14 9.25395ZM110.659 13.2238C110.359 13.4983 110.229 13.9495 110.172 14.4404C110.114 14.941 110.127 15.5367 110.162 16.1529C110.18 16.4621 110.203 16.7798 110.226 17.0959C110.249 17.4127 110.271 17.7279 110.288 18.0354C110.321 18.6526 110.33 19.2266 110.273 19.7025L110.708 19.7548C110.77 19.2392 110.759 18.6336 110.725 18.0117C110.708 17.6997 110.686 17.3807 110.663 17.0644C110.64 16.7474 110.617 16.4333 110.6 16.1281C110.565 15.5154 110.553 14.9516 110.607 14.4908C110.661 14.0205 110.778 13.7086 110.955 13.5468L110.659 13.2238ZM110.273 19.7027C110.213 20.203 110.173 20.7131 110.133 21.2121C110.092 21.7131 110.05 22.2033 109.986 22.6726C109.858 23.6152 109.644 24.4445 109.199 25.0747L109.557 25.3276C110.065 24.6088 110.289 23.6926 110.42 22.7316C110.486 22.2491 110.528 21.748 110.569 21.2478C110.61 20.7458 110.649 20.2451 110.708 19.7547L110.273 19.7027ZM109.199 25.075C108.948 25.4303 108.753 25.8332 108.574 26.2374C108.392 26.6481 108.228 27.0523 108.033 27.4431C107.646 28.216 107.162 28.8721 106.285 29.2005L106.439 29.6107C107.467 29.2257 108.017 28.4532 108.424 27.6392C108.626 27.2366 108.8 26.8076 108.974 26.4151C109.151 26.0162 109.332 25.6458 109.557 25.3273L109.199 25.075ZM106.285 29.2005C105.408 29.5286 104.362 29.3497 103.532 28.9492C103.12 28.7501 102.774 28.5022 102.54 28.251C102.299 27.9933 102.205 27.7641 102.218 27.5967L101.781 27.5631C101.754 27.9114 101.947 28.2572 102.219 28.5497C102.498 28.8487 102.891 29.1263 103.342 29.3437C104.238 29.7762 105.413 29.9945 106.439 29.6107L106.285 29.2005ZM102.218 27.5964C102.243 27.2531 102.081 26.9605 101.845 26.7301C101.61 26.5011 101.286 26.3167 100.939 26.1767C100.247 25.8979 99.3941 25.7699 98.7929 25.8568L98.8556 26.2903C99.3641 26.2168 100.138 26.3263 100.775 26.583C101.092 26.7108 101.359 26.8686 101.539 27.0437C101.717 27.2176 101.794 27.3911 101.781 27.5634L102.218 27.5964ZM98.7929 25.8568C98.3627 25.919 98 25.6545 97.4761 25.1007C96.973 24.5688 96.3575 23.8125 95.4666 23.1256L95.1992 23.4725C96.054 24.1316 96.6293 24.8428 97.1579 25.4017C97.6659 25.9387 98.176 26.3885 98.8556 26.2903L98.7929 25.8568ZM95.4668 23.1257C94.5223 22.3965 93.673 22.4846 93.0445 22.5342C92.7213 22.5597 92.498 22.5691 92.3203 22.5017C92.1664 22.4434 92.0144 22.3124 91.8892 21.9567L91.476 22.1022C91.6297 22.5388 91.8551 22.7939 92.165 22.9113C92.451 23.0198 92.7778 22.9946 93.079 22.9709C93.6994 22.9219 94.3963 22.8526 95.1991 23.4724L95.4668 23.1257ZM91.8893 21.957C91.6048 21.1457 91.3129 20.6578 90.9155 20.2607C90.5297 19.8751 90.0458 19.5798 89.4249 19.1539L89.1771 19.5151C89.828 19.9616 90.2575 20.2224 90.6058 20.5705C90.9426 20.9071 91.2055 21.3306 91.4759 22.102L91.8893 21.957ZM89.4252 19.1541C89.107 18.9352 88.9151 18.7852 88.8124 18.6709C88.7622 18.6152 88.746 18.5815 88.7412 18.5658C88.7386 18.5572 88.7386 18.5546 88.7422 18.5458C88.7486 18.5302 88.7669 18.5 88.8157 18.4519C88.8637 18.4046 88.9304 18.3503 89.02 18.2839C89.1092 18.2178 89.2142 18.1447 89.3375 18.0583C89.4599 17.9727 89.5979 17.8757 89.7488 17.7646L89.4891 17.4119C89.3427 17.5196 89.2083 17.6141 89.0864 17.6995C88.9654 17.7841 88.8544 17.8614 88.7592 17.932C88.6644 18.0023 88.5782 18.071 88.5083 18.1398C88.4393 18.2079 88.3747 18.2869 88.3366 18.3804C88.2957 18.4808 88.2896 18.5872 88.3225 18.6944C88.3533 18.7946 88.4144 18.8834 88.4867 18.9638C88.6288 19.1218 88.8622 19.2984 89.1769 19.5149L89.4252 19.1541ZM89.7483 17.765C90.391 17.295 90.6703 16.7388 90.6817 16.1455C90.6929 15.568 90.4493 14.9888 90.1217 14.4588L89.7491 14.6891C90.0589 15.1903 90.2525 15.6829 90.2438 16.137C90.2354 16.5753 90.0377 17.0107 89.4897 17.4115L89.7483 17.765ZM90.1221 14.4594C89.971 14.213 89.9898 14.1213 90.0037 14.0908C90.0255 14.0429 90.102 13.9746 90.3334 13.8842C90.7458 13.7231 91.5372 13.5425 92.3447 13.0974L92.1333 12.7138C91.3526 13.1441 90.675 13.2805 90.174 13.4762C89.9488 13.5642 89.7075 13.6842 89.605 13.9093C89.4947 14.1517 89.5827 14.4177 89.7487 14.6884L90.1221 14.4594ZM92.3443 13.0976C92.7704 12.864 93.0117 12.6032 93.129 12.3173C93.2443 12.0362 93.2251 11.763 93.1997 11.5439C93.1861 11.4273 93.1723 11.3374 93.1658 11.2448C93.1596 11.156 93.1624 11.0872 93.1764 11.0301C93.1987 10.9389 93.2593 10.8317 93.5095 10.7318L93.347 10.325C93.0025 10.4626 92.8154 10.6627 92.7509 10.9259C92.7215 11.0461 92.7212 11.1662 92.7288 11.2755C92.7362 11.3809 92.7533 11.4979 92.7645 11.5944C92.7886 11.8016 92.7942 11.9793 92.7237 12.1511C92.6552 12.3183 92.5002 12.5126 92.1337 12.7136L92.3443 13.0976ZM93.5097 10.7317C93.8351 10.6013 94.0688 10.4181 94.1821 10.183C94.2994 9.9398 94.2673 9.68376 94.1468 9.4615C93.9153 9.03439 93.3459 8.69268 92.6737 8.56685L92.5931 8.99741C93.1942 9.10991 93.6169 9.403 93.7617 9.67026C93.8295 9.7952 93.8317 9.90123 93.7875 9.99286C93.7394 10.0927 93.6161 10.2172 93.3468 10.3251L93.5097 10.7317ZM92.6738 8.56688C92.3167 8.4998 92.0359 8.54926 91.824 8.70655C91.6201 8.85791 91.518 9.08224 91.454 9.27972C91.4214 9.38019 91.3962 9.48235 91.374 9.57391C91.351 9.6686 91.3317 9.74952 91.3094 9.82124C91.2592 9.98288 91.2209 9.99965 91.2165 10.0011L91.3538 10.4171C91.5879 10.3398 91.6787 10.1091 91.7278 9.95119C91.7551 9.86314 91.778 9.76628 91.7996 9.67727C91.822 9.58513 91.8438 9.49767 91.8707 9.41472C91.9256 9.24534 91.9918 9.12755 92.0851 9.05828C92.1704 8.99495 92.3157 8.9453 92.5929 8.99738L92.6738 8.56688ZM91.2159 10.0013C91.2452 9.99155 91.259 10.0097 91.2352 9.99246C91.2069 9.97189 91.1647 9.92681 91.111 9.84615C91.0047 9.68647 90.895 9.45311 90.7793 9.1972C90.6678 8.95076 90.5502 8.68216 90.4352 8.48332C90.378 8.38459 90.3129 8.28736 90.2388 8.21568C90.1692 8.14821 90.0468 8.0614 89.8894 8.09408L89.9784 8.52296C89.9203 8.53501 89.8998 8.49709 89.9341 8.53035C89.9641 8.55939 90.0051 8.61473 90.056 8.70272C90.1571 8.87733 90.2631 9.11881 90.3801 9.37769C90.4929 9.6271 90.6168 9.89427 90.7464 10.0889C90.8107 10.1855 90.8871 10.281 90.9777 10.3468C91.0729 10.4159 91.2059 10.4663 91.3544 10.4169L91.2159 10.0013ZM89.8916 8.09363C89.8325 8.10526 89.7791 8.13135 89.7372 8.15565C89.6931 8.18124 89.648 8.21296 89.6038 8.2469C89.5156 8.3145 89.4154 8.40266 89.3111 8.4964C89.0978 8.68814 88.8569 8.91223 88.6039 9.10305C88.3475 9.29646 88.1057 9.43414 87.8978 9.47401C87.798 9.49315 87.713 9.48831 87.639 9.46203C87.5658 9.43607 87.4882 9.38385 87.4106 9.28357L87.0643 9.5518C87.1857 9.70858 87.3293 9.81691 87.4924 9.87482C87.6546 9.93241 87.8209 9.93476 87.9803 9.9042C88.2907 9.84467 88.5991 9.65541 88.8677 9.45274C89.1398 9.24748 89.399 9.00637 89.6039 8.82218C89.7088 8.72796 89.7973 8.65047 89.8702 8.59455C89.9065 8.56672 89.9352 8.54721 89.957 8.53458C89.981 8.52065 89.9858 8.52152 89.9762 8.52341L89.8916 8.09363ZM87.4109 9.28398C87.2884 9.12502 87.1067 8.98207 86.8951 8.8525C86.6812 8.72158 86.4245 8.59699 86.1402 8.47901C85.5717 8.24307 84.8766 8.02693 84.1577 7.8374C82.7194 7.45821 81.163 7.17965 80.2823 7.06172L80.2242 7.49588C81.0891 7.61169 82.6274 7.88695 84.046 8.26096C84.7556 8.44803 85.4296 8.65833 85.9723 8.88358C86.2437 8.99621 86.4782 9.11091 86.6663 9.22608C86.8567 9.3426 86.9878 9.45254 87.0639 9.55139L87.4109 9.28398ZM80.2832 7.06185C79.5002 6.95347 78.9745 6.40213 78.4827 5.85997C78.2469 5.59994 78.0072 5.32915 77.7573 5.15532C77.4949 4.97276 77.19 4.87565 76.8425 5.00871L76.9992 5.41777C77.1684 5.35298 77.3204 5.38498 77.5071 5.51489C77.7064 5.65354 77.9082 5.8786 78.1583 6.15426C78.6383 6.68345 79.2622 7.36274 80.2232 7.49574L80.2832 7.06185ZM76.8417 5.00905C76.5655 5.11618 76.3395 5.28074 76.311 5.55283C76.2978 5.6784 76.332 5.79756 76.3827 5.90295C76.4335 6.00848 76.5074 6.11353 76.5922 6.2169C76.7609 6.42244 76.9995 6.65246 77.2596 6.90122C77.5235 7.15355 77.8166 7.43155 78.1094 7.74345L78.4287 7.44359C78.1262 7.12146 77.8241 6.83495 77.5623 6.58464C77.2968 6.33076 77.0793 6.12002 76.9308 5.93903C76.857 5.84913 76.807 5.77448 76.7774 5.71291C76.7477 5.65119 76.7448 5.61586 76.7466 5.59858C76.748 5.58498 76.7603 5.51044 77.0001 5.41743L76.8417 5.00905ZM78.1093 7.74325C78.226 7.86785 78.2339 7.95082 78.2227 8.00429C78.2086 8.07221 78.1485 8.16735 77.9967 8.28025C77.6944 8.50514 77.1508 8.71003 76.4924 8.86721C75.8417 9.02256 75.1063 9.125 74.4422 9.15951C73.771 9.19438 73.1985 9.15834 72.8604 9.05279L72.7299 9.47092C73.1454 9.60065 73.7826 9.6324 74.4649 9.59695C75.1543 9.56113 75.9162 9.45512 76.5942 9.29327C77.2645 9.13324 77.8811 8.91217 78.2582 8.6317C78.4461 8.49192 78.6055 8.31453 78.6516 8.09374C78.7006 7.8585 78.6095 7.63659 78.4289 7.44379L78.1093 7.74325ZM72.8615 9.05311C72.6662 8.99109 72.5057 8.95641 72.3762 8.95312C72.2492 8.94988 72.107 8.9765 72.0103 9.09054C71.9179 9.19954 71.9159 9.33295 71.9239 9.41867C71.9323 9.50894 71.9582 9.60577 71.9797 9.68454C72.0032 9.77098 72.0237 9.84339 72.0351 9.91091C72.0469 9.97989 72.0439 10.0168 72.0388 10.0339C72.0375 10.0383 72.039 10.0415 72.0204 10.0499C71.9903 10.0636 71.9198 10.0806 71.7773 10.0715L71.7494 10.5086C71.9245 10.5198 72.0774 10.5049 72.2009 10.4491C72.3359 10.388 72.4213 10.2843 72.4587 10.1587C72.4922 10.0458 72.4827 9.92985 72.467 9.83753C72.451 9.74374 72.4233 9.64648 72.4023 9.56944C72.3792 9.48475 72.3643 9.42431 72.36 9.3781C72.3553 9.32735 72.3688 9.34508 72.3444 9.37378C72.3158 9.40751 72.2943 9.3892 72.3651 9.39101C72.4334 9.39274 72.5478 9.41307 72.7289 9.47059L72.8615 9.05311ZM71.777 10.0715C71.3841 10.0469 71.073 10.2045 70.822 10.4522C70.5783 10.6928 70.3843 11.0246 70.2091 11.3696C70.1207 11.5438 70.0344 11.7271 69.9483 11.909C69.8616 12.0921 69.7747 12.2746 69.6831 12.4524C69.499 12.8095 69.3015 13.1359 69.0638 13.3922L69.3849 13.6901C69.6631 13.3903 69.8821 13.0223 70.0724 12.6531C70.1679 12.4679 70.2576 12.2792 70.3442 12.0965C70.4312 11.9126 70.5146 11.7355 70.5997 11.5679C70.7716 11.2292 70.9395 10.9518 71.1297 10.764C71.3126 10.5834 71.5075 10.4935 71.7497 10.5086L71.777 10.0715ZM69.0638 13.3922C68.5039 13.9958 68.4154 14.5247 68.325 14.9542C68.2803 15.1668 68.2381 15.3385 68.1497 15.4991C68.0639 15.6549 67.9271 15.8125 67.6754 15.9739L67.9118 16.3426C68.2165 16.1473 68.4078 15.9384 68.5334 15.7104C68.6563 15.4871 68.7088 15.2577 68.7537 15.0443C68.8426 14.6217 68.913 14.1988 69.3849 13.6901L69.0638 13.3922ZM67.6751 15.9741C67.0975 16.3457 66.7195 16.7816 66.7324 17.3732C66.7445 17.9347 67.1128 18.5626 67.7891 19.3213L68.1161 19.0299C67.4456 18.2776 67.1787 17.7543 67.1703 17.3637C67.1625 17.0031 67.3784 16.6858 67.9121 16.3424L67.6751 15.9741ZM67.7894 19.3217C67.9498 19.5009 68.0536 19.6512 68.1149 19.7729C68.1769 19.8959 68.1893 19.9775 68.1858 20.0248C68.1829 20.0647 68.1689 20.0873 68.145 20.1065C68.1153 20.1303 68.0592 20.1562 67.9655 20.1679C67.7769 20.1913 67.4985 20.1487 67.1873 20.021C66.8798 19.8948 66.557 19.6922 66.2806 19.4163L65.9711 19.7263C66.2909 20.0455 66.6632 20.2794 67.021 20.4262C67.3749 20.5715 67.7317 20.6383 68.0195 20.6026C68.164 20.5846 68.3063 20.5388 68.4193 20.448C68.538 20.3527 68.6108 20.218 68.6227 20.0571C68.634 19.9037 68.5893 19.741 68.5061 19.5758C68.4222 19.4093 68.2927 19.2273 68.1157 19.0295L67.7894 19.3217ZM66.2807 19.4164C65.6724 18.8084 65.0201 18.458 64.4906 18.4821C64.2133 18.4947 63.9679 18.6118 63.8052 18.8454C63.648 19.071 63.5863 19.3787 63.6082 19.7434L64.0455 19.717C64.0269 19.4087 64.0839 19.2117 64.1646 19.0958C64.2397 18.9879 64.3514 18.9269 64.5105 18.9196C64.8539 18.904 65.3917 19.1471 65.971 19.7262L66.2807 19.4164ZM63.6082 19.7428C63.626 20.0503 63.5486 20.1778 63.499 20.2196C63.4606 20.252 63.3892 20.2725 63.2735 20.2114C63.0379 20.0871 62.7442 19.6565 62.8524 18.9715L62.4197 18.9031C62.2895 19.7275 62.6301 20.3671 63.069 20.5988C63.2906 20.7157 63.5665 20.7356 63.7813 20.5545C63.9849 20.3828 64.0667 20.0839 64.0455 19.7175L63.6082 19.7428ZM62.8524 18.9717C62.9193 18.551 62.842 18.2362 62.6314 18.0129C62.4343 17.8039 62.1525 17.7129 61.9059 17.6523C61.634 17.5855 61.4115 17.5547 61.2056 17.4803C61.0139 17.411 60.9077 17.3254 60.861 17.196L60.449 17.3449C60.5597 17.651 60.8099 17.803 61.0567 17.8922C61.2892 17.9763 61.5873 18.0251 61.8014 18.0777C62.0406 18.1364 62.21 18.2045 62.3127 18.3134C62.4019 18.4079 62.4728 18.5696 62.4198 18.9029L62.8524 18.9717ZM60.8605 17.1948C60.6791 16.7018 60.1447 16.0961 59.5472 15.6306C59.2439 15.3944 58.9138 15.1858 58.5876 15.0406C58.2644 14.8966 57.9284 14.8074 57.6195 14.8307L57.6525 15.2675C57.8603 15.2518 58.1199 15.3117 58.4094 15.4407C58.696 15.5683 58.9959 15.7564 59.278 15.9762C59.8514 16.4228 60.3099 16.9668 60.4495 17.3461L60.8605 17.1948ZM57.6188 14.8307C57.0071 14.8788 56.6967 15.2452 56.4424 15.5292C56.1864 15.815 55.986 16.0217 55.5739 16.0217V16.4598C56.1937 16.4598 56.5091 16.1112 56.7687 15.8214C57.0299 15.5298 57.2347 15.3003 57.6532 15.2674L57.6188 14.8307ZM55.5739 16.0217C55.0232 16.0217 54.6103 16.1704 54.3839 16.5425C54.1722 16.8903 54.1648 17.3755 54.2442 17.9367L54.678 17.8753C54.5999 17.3243 54.6323 16.9768 54.7581 16.7701C54.8691 16.5876 55.0913 16.4598 55.5739 16.4598V16.0217ZM54.2443 17.9374C54.2615 18.0558 54.2474 18.1093 54.2385 18.1282C54.2347 18.1362 54.2309 18.1448 54.2008 18.1537C54.1616 18.1652 54.0951 18.1701 53.9913 18.1586C53.8901 18.1474 53.7702 18.1228 53.6319 18.0888C53.3705 18.0247 53.0171 17.9187 52.6898 17.8474C52.3535 17.774 51.9908 17.7231 51.6544 17.7684L51.7128 18.2025C51.9726 18.1676 52.2752 18.2053 52.5965 18.2753C52.9269 18.3474 53.2234 18.4396 53.5274 18.5142C53.6719 18.5497 53.8135 18.5797 53.9431 18.594C54.0701 18.608 54.2037 18.6093 54.3242 18.5739C54.4538 18.5359 54.5693 18.4542 54.635 18.3144C54.6955 18.1854 54.7008 18.0335 54.6779 17.8747L54.2443 17.9374ZM51.6552 17.7683C51.311 17.8134 51.0781 17.9564 50.9714 18.1996C50.8763 18.4164 50.9083 18.6626 50.9432 18.847C50.9607 18.9396 50.985 19.0435 51.0007 19.1192C51.0183 19.2035 51.0285 19.2674 51.0298 19.3164C51.0312 19.3678 51.0215 19.3728 51.0289 19.362C51.0428 19.3416 51.0569 19.3481 51.022 19.3525L51.0765 19.7871C51.2002 19.7716 51.3159 19.7186 51.3909 19.6086C51.4593 19.5082 51.47 19.3935 51.4677 19.3048C51.4653 19.2138 51.4477 19.1171 51.4296 19.0301C51.4097 18.9345 51.3907 18.8563 51.3736 18.7656C51.3391 18.5833 51.3364 18.458 51.3726 18.3756C51.3972 18.3195 51.4616 18.2354 51.7121 18.2026L51.6552 17.7683ZM51.022 19.3525C50.7932 19.3812 50.6303 19.5047 50.5054 19.6417C50.3893 19.7689 50.2804 19.9398 50.1888 20.0661C50.0889 20.204 49.9901 20.3203 49.8668 20.4038C49.7483 20.4842 49.5972 20.5409 49.3815 20.5409V20.9789C49.6834 20.9789 49.9203 20.8968 50.1126 20.7664C50.3002 20.6392 50.435 20.4729 50.5435 20.3232C50.6604 20.1619 50.7348 20.0402 50.829 19.9368C50.9145 19.8432 50.9889 19.7981 51.0765 19.7871L51.022 19.3525ZM49.3815 20.5409C49.021 20.5409 48.7742 20.7504 48.6205 21.0328C48.4719 21.3055 48.3968 21.6648 48.3614 22.0368C48.2902 22.7856 48.3729 23.6776 48.4521 24.2766L48.8863 24.2191C48.8081 23.6279 48.7311 22.776 48.7974 22.0783C48.8308 21.7271 48.8988 21.4376 49.0052 21.2423C49.1063 21.0566 49.2262 20.9789 49.3815 20.9789V20.5409ZM48.4521 24.2766C48.47 24.412 48.4528 24.4591 48.4499 24.4648C48.4499 24.4648 48.4502 24.4641 48.451 24.463C48.4518 24.4618 48.453 24.4603 48.4547 24.4586C48.4581 24.455 48.4621 24.4519 48.4659 24.4497C48.4736 24.4453 48.4742 24.4479 48.4595 24.4487C48.4241 24.4506 48.3586 24.4402 48.2524 24.4039C48.1505 24.369 48.0317 24.3178 47.8959 24.2562C47.6314 24.1362 47.3056 23.9777 46.9846 23.8729C46.6665 23.7691 46.3098 23.7025 45.9856 23.8034L46.1158 24.2217C46.3067 24.1622 46.5546 24.1934 46.8487 24.2893C47.1399 24.3843 47.4338 24.5275 47.7149 24.6551C47.8518 24.7172 47.9872 24.7761 48.1107 24.8184C48.23 24.8592 48.3611 24.8928 48.4833 24.8861C48.62 24.8786 48.7599 24.8179 48.8385 24.6669C48.9049 24.5392 48.9078 24.3808 48.8863 24.2191L48.4521 24.2766ZM45.9863 23.8032C45.8373 23.849 45.7094 23.9136 45.6129 24.0066C45.5123 24.1035 45.4565 24.2212 45.4396 24.3498C45.4088 24.5849 45.5121 24.8406 45.6247 25.0706C45.6842 25.1921 45.7541 25.3208 45.8255 25.4519C45.8976 25.5844 45.972 25.7207 46.0441 25.8629C46.1884 26.1477 46.3187 26.4476 46.3924 26.7608L46.8188 26.6604C46.7336 26.2983 46.5858 25.963 46.4348 25.665C46.3593 25.5158 46.2817 25.3737 46.2102 25.2425C46.138 25.1099 46.0727 24.9895 46.0181 24.878C45.9026 24.642 45.8622 24.4963 45.8739 24.4067C45.8783 24.373 45.8903 24.3476 45.9168 24.3221C45.9474 24.2926 46.0058 24.2555 46.1151 24.2219L45.9863 23.8032ZM46.3925 26.761C46.4674 27.0784 46.4663 27.2885 46.4314 27.4338C46.398 27.5727 46.3298 27.6688 46.2333 27.7536C46.1286 27.8455 46.0001 27.9175 45.8359 28.0146C45.6794 28.1072 45.4996 28.2183 45.3395 28.3783L45.6491 28.6882C45.7672 28.5702 45.9052 28.4826 46.0589 28.3916C46.2049 28.3052 46.379 28.2086 46.5224 28.0827C46.6739 27.9496 46.7991 27.7784 46.8573 27.5362C46.914 27.3005 46.9027 27.0158 46.8188 26.6603L46.3925 26.761ZM45.3395 28.3783C45.3077 28.4101 45.2933 28.4072 45.2895 28.4069C45.2754 28.4059 45.2381 28.3961 45.1769 28.345C45.0527 28.2411 44.9074 28.0319 44.7671 27.7429C44.4891 27.1699 44.281 26.3896 44.281 25.8352H43.843C43.843 26.471 44.0736 27.3169 44.373 27.9341C44.5215 28.2401 44.6996 28.5169 44.896 28.6811C44.9951 28.7639 45.1173 28.8335 45.2575 28.8438C45.4078 28.8548 45.5422 28.795 45.6491 28.6882L45.3395 28.3783ZM44.281 25.8352C44.281 25.6698 44.2583 25.5192 44.1979 25.3964C44.1334 25.2652 44.0274 25.1705 43.8859 25.1326C43.7549 25.0976 43.6182 25.1179 43.4936 25.158C43.3669 25.1988 43.2327 25.2665 43.0955 25.351C42.5533 25.685 41.8426 26.359 41.1301 27.1116L41.4482 27.4127C42.1619 26.6589 42.8375 26.0244 43.3253 25.7239C43.4456 25.6498 43.5466 25.6011 43.6278 25.575C43.7111 25.5482 43.7552 25.5511 43.7728 25.5558C43.7797 25.5577 43.7901 25.5597 43.8048 25.5896C43.8237 25.628 43.843 25.7031 43.843 25.8352H44.281ZM41.1303 27.1113C40.3287 27.9553 40.4787 29.015 40.6993 29.8369C40.7551 30.0448 40.8172 30.2437 40.8722 30.4228C40.9281 30.6046 40.9758 30.7636 41.0072 30.9017C41.0392 31.0428 41.0491 31.142 41.0417 31.2084C41.0353 31.2666 41.0195 31.275 41.0129 31.2791L41.2443 31.651C41.3967 31.5562 41.4605 31.4061 41.4771 31.2568C41.4928 31.1158 41.4693 30.9586 41.4343 30.8048C41.3988 30.6481 41.3461 30.4737 41.291 30.2942C41.235 30.1121 41.1756 29.9219 41.1223 29.7233C40.9065 28.9193 40.8188 28.0754 41.4479 27.413L41.1303 27.1113ZM41.0125 31.2794C40.8363 31.3895 40.5257 31.6449 40.1448 31.9827C39.7588 32.3251 39.2877 32.7639 38.785 33.2516C37.7805 34.2263 36.6439 35.4023 35.8049 36.401L36.1403 36.6827C36.966 35.6999 38.091 34.5353 39.0901 33.566C39.5892 33.0816 40.0554 32.6475 40.4354 32.3104C40.8205 31.9689 41.1045 31.7384 41.2447 31.6508L41.0125 31.2794ZM35.805 36.4009C35.0377 37.3135 33.8181 37.5129 32.5767 37.583C31.9744 37.6171 31.3486 37.6212 30.8263 37.6752C30.3055 37.729 29.8131 37.8369 29.4804 38.1218L29.7653 38.4545C29.9874 38.2642 30.358 38.1639 30.8714 38.1109C31.3834 38.0579 31.9633 38.0564 32.6014 38.0204C33.841 37.9503 35.2414 37.7518 36.1403 36.6828L35.805 36.4009ZM29.4802 38.1219C28.9824 38.5489 28.472 38.6055 27.8983 38.6543C27.33 38.7026 26.6896 38.7423 26.0756 39.2251L26.3464 39.5694C26.8437 39.1784 27.3535 39.1402 27.9354 39.0907C28.5121 39.0417 29.1519 38.9806 29.7654 38.4543L29.4802 38.1219ZM26.0757 39.225C25.5147 39.6654 24.736 40.2888 24.0686 40.676C23.73 40.8726 23.45 40.9899 23.2559 41.0094C23.1627 41.0188 23.1131 41.0031 23.0875 40.9868C23.0662 40.9733 23.0344 40.9425 23.0141 40.8545L22.5872 40.9529C22.6266 41.1235 22.7113 41.2668 22.8527 41.3566C22.9897 41.4436 23.149 41.4604 23.2998 41.4452C23.5938 41.4156 23.9432 41.2552 24.2884 41.0549C24.9888 40.6485 25.796 40.0015 26.3462 39.5696L26.0757 39.225ZM23.0142 40.8549C22.9264 40.4709 22.5934 40.2929 22.2332 40.2362C21.872 40.1793 21.4224 40.229 20.9617 40.347C20.0406 40.5829 18.987 41.1156 18.3562 41.7882L18.6757 42.0878C19.2342 41.4923 20.2052 40.9929 21.0704 40.7713C21.5027 40.6606 21.8866 40.625 22.165 40.6689C22.4444 40.7129 22.5572 40.8216 22.5872 40.9525L23.0142 40.8549ZM18.3563 41.7881C17.7775 42.4044 17.0221 42.9853 16.2463 43.4213C15.4671 43.8591 14.6869 44.1398 14.0577 44.1776L14.0839 44.6148C14.806 44.5715 15.653 44.2572 16.4609 43.8032C17.2721 43.3473 18.0637 42.7396 18.6756 42.0879L18.3563 41.7881ZM14.0582 44.1775C13.2428 44.2246 12.8592 44.8814 12.6189 45.4721C12.5017 45.7602 12.3943 46.0995 12.3047 46.336C12.204 46.6019 12.1159 46.7687 12.0247 46.8473L12.3107 47.1792C12.4969 47.0187 12.6169 46.7486 12.7144 46.4911C12.823 46.2042 12.9039 45.9338 13.0246 45.6371C13.2601 45.0583 13.5506 44.6456 14.0834 44.6148L14.0582 44.1775ZM12.0252 46.8469C11.9772 46.888 11.9955 46.8499 12.0526 46.8666C12.0993 46.8802 12.0957 46.91 12.0715 46.8553C12.0262 46.7533 11.9941 46.5499 11.9788 46.2756C11.9487 45.7356 11.9877 45.0919 11.9877 44.7934H11.5497C11.5497 45.0449 11.5108 45.7487 11.5415 46.2999C11.5566 46.5712 11.5895 46.8493 11.6711 47.033C11.7102 47.1212 11.7855 47.245 11.9299 47.2871C12.0847 47.3323 12.2194 47.2573 12.3101 47.1796L12.0252 46.8469ZM11.9877 44.7934C11.9877 44.742 11.9811 44.6773 11.9506 44.6159C11.916 44.5459 11.8529 44.4868 11.7647 44.4654C11.6877 44.4467 11.6182 44.4636 11.5717 44.4808C11.5229 44.499 11.4772 44.5259 11.4364 44.5544C11.279 44.6643 11.0861 44.8758 10.8898 45.1373C10.491 45.6686 10.0232 46.4819 9.73732 47.3397L10.1529 47.4782C10.4219 46.6707 10.8659 45.8989 11.2402 45.4002C11.4305 45.1466 11.5894 44.9818 11.6872 44.9135C11.7103 44.8974 11.7223 44.8922 11.7243 44.8914C11.7286 44.8898 11.7028 44.9011 11.6615 44.8911C11.6091 44.8784 11.5739 44.8422 11.5581 44.8103C11.5465 44.7869 11.5497 44.7755 11.5497 44.7934H11.9877ZM9.73732 47.3397C9.42798 48.2681 9.81496 48.928 10.0629 49.4896C10.1896 49.7767 10.2829 50.0372 10.2852 50.321C10.2874 50.599 10.2019 50.9229 9.92464 51.3296L10.2866 51.5763C10.604 51.1107 10.7263 50.7011 10.7232 50.3175C10.7202 49.9396 10.595 49.6104 10.4636 49.3127C10.1952 48.7048 9.90736 48.2151 10.1529 47.4782L9.73732 47.3397ZM9.92469 51.3296C9.33237 52.1978 8.73115 53.1027 8.50193 54.0802C8.26786 55.0784 8.42408 56.135 9.29452 57.2953L9.64491 57.0324C8.84764 55.9697 8.72565 55.0448 8.92839 54.1802C9.13596 53.295 9.68654 52.4559 10.2865 51.5764L9.92469 51.3296ZM9.29455 57.2953C10.1299 58.4082 10.7709 59.3038 11.137 60.0548C11.503 60.8058 11.5684 61.3596 11.3374 61.8219L11.7293 62.0177C12.0516 61.3724 11.9183 60.6581 11.5307 59.8629C11.1432 59.0679 10.4757 58.1393 9.64488 57.0323L9.29455 57.2953ZM11.3375 61.8217C11.2816 61.9333 11.2467 61.9308 11.258 61.9287C11.2626 61.9279 11.2329 61.9351 11.1526 61.8738C10.992 61.7509 10.798 61.4851 10.586 61.1574C10.3859 60.8482 10.1719 60.4873 9.99073 60.2418C9.90127 60.1206 9.8025 60.0026 9.69994 59.9301C9.6481 59.8935 9.57593 59.8545 9.48888 59.8484C9.39008 59.8415 9.30112 59.8791 9.23481 59.9459L9.54564 60.2545C9.52901 60.2713 9.49592 60.288 9.45847 60.2854C9.43278 60.2836 9.42746 60.2739 9.44726 60.2879C9.48798 60.3167 9.55167 60.3845 9.63828 60.5019C9.80929 60.7336 10.0018 61.0609 10.2183 61.3954C10.4228 61.7115 10.6554 62.045 10.8866 62.2218C11.0023 62.3102 11.1599 62.3923 11.3376 62.3594C11.522 62.3253 11.6459 62.184 11.7291 62.0179L11.3375 61.8217ZM9.2354 59.9453C9.12079 60.0599 9.10343 60.2056 9.12452 60.33C9.14433 60.4468 9.19986 60.5646 9.26176 60.672C9.38553 60.8868 9.58411 61.1403 9.76081 61.3784C9.94536 61.6272 10.1121 61.8665 10.2064 62.0814C10.303 62.3015 10.2964 62.4319 10.2411 62.5152L10.6061 62.7574C10.7884 62.4825 10.722 62.1662 10.6075 61.9054C10.4908 61.6394 10.2953 61.3637 10.1126 61.1175C9.92205 60.8606 9.74841 60.6392 9.64127 60.4533C9.58771 60.3604 9.56311 60.2964 9.55639 60.2568C9.55096 60.2248 9.56069 60.2395 9.54505 60.2551L9.2354 59.9453ZM10.2418 62.5142C10.2321 62.5286 10.2316 62.5227 10.2444 62.518C10.2565 62.5135 10.2601 62.5177 10.2454 62.5139C10.2059 62.5039 10.1315 62.4625 10.0203 62.3635C9.80439 62.1712 9.54769 61.8531 9.2782 61.5156C9.01805 61.1898 8.74359 60.8426 8.51006 60.6309C8.39892 60.5302 8.2626 60.4269 8.11702 60.3987C8.03501 60.3828 7.94169 60.3893 7.85467 60.4406C7.77116 60.4899 7.71821 60.5661 7.68435 60.6424L8.08475 60.82C8.09503 60.7968 8.0968 60.8063 8.07733 60.8178C8.06758 60.8236 8.05689 60.8271 8.04716 60.8284C8.03805 60.8297 8.03304 60.8286 8.03379 60.8287C8.05105 60.8321 8.10979 60.8593 8.21585 60.9554C8.41674 61.1376 8.66524 61.4499 8.9359 61.7889C9.19722 62.1162 9.47916 62.4681 9.72898 62.6906C9.85069 62.799 9.99095 62.9013 10.1377 62.9385C10.2162 62.9584 10.3059 62.9621 10.3957 62.929C10.4863 62.8957 10.5552 62.8331 10.6053 62.7585L10.2418 62.5142ZM7.68468 60.6416C7.63961 60.7422 7.64192 60.8544 7.65475 60.9481C7.66833 61.0472 7.69854 61.1578 7.73879 61.2746C7.81944 61.5086 7.95064 61.7962 8.11225 62.1173C8.43578 62.76 8.89802 63.5694 9.36722 64.4083C9.83852 65.251 10.3187 66.1266 10.6861 66.9136C11.0579 67.7101 11.2974 68.3821 11.316 68.8284L11.7537 68.8101C11.731 68.2663 11.4535 67.5219 11.083 66.7283C10.708 65.9251 10.2206 65.0368 9.74952 64.1945C9.27634 63.3485 8.82142 62.5519 8.50351 61.9203C8.34439 61.6042 8.22381 61.3376 8.15291 61.1319C8.11739 61.0288 8.09689 60.9482 8.08873 60.8886C8.07982 60.8236 8.08937 60.8097 8.08442 60.8207L7.68468 60.6416ZM11.316 68.828C11.3381 69.3777 11.5679 69.9062 11.8736 70.42C12.1782 70.9319 12.5772 71.4587 12.9528 71.9903C13.7167 73.0716 14.4063 74.2059 14.3321 75.5508L14.7695 75.5749C14.8528 74.0644 14.0741 72.8184 13.3106 71.7375C12.9224 71.1881 12.5429 70.6883 12.25 70.196C11.9581 69.7055 11.7714 69.2523 11.7537 68.8105L11.316 68.828ZM14.3321 75.5507C14.2493 77.0386 14.9477 78.947 15.7023 80.5442C16.4621 82.1521 17.3013 83.4899 17.5434 83.8533L17.908 83.6104C17.6747 83.2604 16.847 81.9414 16.0984 80.357C15.3447 78.7619 14.6933 76.9425 14.7695 75.575L14.3321 75.5507ZM17.5431 83.8529C17.6058 83.9475 17.62 84.1159 17.5441 84.4231C17.4704 84.7211 17.3328 85.0757 17.1803 85.5019C16.882 86.3357 16.5458 87.3925 16.7126 88.5229L17.146 88.4589C16.9964 87.4459 17.2954 86.4806 17.5928 85.6495C17.7381 85.2432 17.8886 84.8547 17.9693 84.5283C18.0477 84.211 18.0825 83.8738 17.9083 83.6109L17.5431 83.8529ZM16.7127 88.5234C16.8681 89.5588 16.6884 90.2198 16.3565 90.6198C16.0252 91.0189 15.503 91.2052 14.8687 91.2052V91.6433C15.5827 91.6433 16.2513 91.4323 16.6935 90.8995C17.135 90.3676 17.3115 89.5619 17.1459 88.4584L16.7127 88.5234ZM14.8687 91.2052C14.4627 91.2052 14.1688 91.38 14.0355 91.6865C13.9122 91.9699 13.9491 92.3165 14.069 92.6325C14.3089 93.2649 14.9422 93.9322 15.795 94.0223L15.841 93.5867C15.1912 93.518 14.675 92.9951 14.4785 92.4771C14.3802 92.2179 14.3771 91.9992 14.4372 91.8612C14.4872 91.7462 14.5999 91.6433 14.8687 91.6433V91.2052ZM15.7951 94.0223C16.1457 94.0593 16.3537 94.1443 16.5001 94.2516C16.6499 94.3613 16.7556 94.5082 16.8828 94.7135C17.1403 95.1292 17.4395 95.7037 18.3164 96.289L18.5596 95.9247C17.7704 95.3979 17.514 94.9006 17.2552 94.4829C17.1242 94.2715 16.9816 94.0613 16.759 93.8982C16.5331 93.7327 16.2447 93.6292 15.8409 93.5867L15.7951 94.0223ZM18.3167 96.2892C18.7682 96.5898 19.3612 96.7802 20.0014 96.9015C20.6443 97.0233 21.3512 97.0784 22.0417 97.0985C22.7328 97.1185 23.4126 97.1036 24.0019 97.0837C24.5959 97.0638 25.0881 97.0394 25.4207 97.0394V96.6013C25.0784 96.6013 24.5686 96.6264 23.9872 96.646C23.401 96.6657 22.7319 96.6803 22.0544 96.6606C21.3762 96.641 20.6946 96.587 20.083 96.4711C19.4686 96.3547 18.941 96.1786 18.5594 95.9246L18.3167 96.2892ZM25.4207 97.0394C25.8203 97.0394 26.1439 96.8845 26.4246 96.6707C26.6984 96.4621 26.9475 96.1839 27.1884 95.9288C27.6832 95.405 28.1851 94.9332 29.0018 94.9003L28.9842 94.4626C27.9773 94.5031 27.368 95.1007 26.8699 95.628C26.6145 95.8985 26.3967 96.1413 26.1591 96.3223C25.9284 96.498 25.6959 96.6013 25.4207 96.6013V97.0394ZM29.0027 94.9003C29.9335 94.859 30.4164 94.6951 30.7714 94.3505C30.9402 94.1867 31.0712 93.99 31.2062 93.7819C31.3438 93.5698 31.4919 93.335 31.7029 93.0657L31.3581 92.7955C31.1327 93.0832 30.9736 93.3355 30.8387 93.5435C30.7013 93.7554 30.5947 93.9116 30.4664 94.0362C30.2272 94.2683 29.8778 94.423 28.9833 94.4627L29.0027 94.9003ZM31.7025 93.0662C31.8706 92.8529 32.2259 92.6779 32.7913 92.5577C33.3464 92.4397 34.0594 92.3832 34.8875 92.3687C36.5438 92.3397 38.6163 92.4783 40.7248 92.5993L40.7498 92.162C38.6516 92.0416 36.5571 91.9014 34.8799 91.9308C34.0413 91.9455 33.2958 92.0026 32.7002 92.1292C32.1148 92.2537 31.6268 92.4546 31.3585 92.7951L31.7025 93.0662ZM40.7251 92.5993C42.8481 92.7181 44.3961 92.4594 45.502 91.9319C46.6153 91.4009 47.2691 90.6027 47.6049 89.6762L47.193 89.527C46.896 90.3467 46.3215 91.0557 45.3135 91.5365C44.2981 92.0208 42.8316 92.2785 40.7495 92.162L40.7251 92.5993ZM47.6047 89.6766C47.7171 89.3684 47.9635 89.1168 48.3203 88.8949C48.678 88.6724 49.1257 88.4926 49.6112 88.3186C50.0882 88.1476 50.6087 87.9801 51.0743 87.789C51.5411 87.5974 51.9833 87.3707 52.3102 87.065L52.011 86.7451C51.7432 86.9955 51.3607 87.198 50.908 87.3838C50.4541 87.57 49.9603 87.7281 49.4634 87.9062C48.9749 88.0813 48.4892 88.274 48.089 88.5229C47.688 88.7723 47.3521 89.0908 47.1932 89.5266L47.6047 89.6766ZM52.3098 87.0653C52.8773 86.5367 53.3951 86.2615 54.143 86.1308C54.9085 85.9971 55.9154 86.0144 57.4676 86.0926L57.4896 85.6551C55.9463 85.5774 54.8896 85.5557 54.0676 85.6993C53.2281 85.846 52.6345 86.1643 52.0113 86.7448L52.3098 87.0653ZM57.4673 86.0926C59.0559 86.1741 60.5757 85.7876 61.9383 85.2875C62.62 85.0373 63.2653 84.7575 63.8615 84.492C64.4603 84.2254 65.0044 83.9756 65.4949 83.7794L65.3322 83.3727C64.8314 83.573 64.2747 83.8285 63.6833 84.0919C63.0892 84.3564 62.4548 84.6313 61.7873 84.8763C60.4515 85.3666 58.9951 85.7324 57.4898 85.6551L57.4673 86.0926ZM65.4951 83.7793C66.4481 83.397 67.8199 83.2779 69.2253 83.1985C70.6076 83.1204 72.0272 83.0808 73.0056 82.8367L72.8996 82.4117C71.9734 82.6428 70.6155 82.6812 69.2005 82.7612C67.8086 82.8399 66.3631 82.9591 65.332 83.3728L65.4951 83.7793ZM73.0061 82.8366C73.4212 82.7321 73.739 82.8081 74.0248 82.9779C74.3239 83.1557 74.5875 83.4351 74.8852 83.7531C75.4616 84.3687 76.1469 85.1142 77.3393 84.9823L77.2912 84.547C76.342 84.6519 75.7983 84.0874 75.205 83.4537C74.9177 83.1469 74.6113 82.8169 74.2485 82.6013C73.8724 82.3778 73.4364 82.2765 72.8991 82.4119L73.0061 82.8366ZM77.3398 84.9823C78.3732 84.8658 79.1173 85.0179 79.7465 85.1923C80.3614 85.3627 80.9327 85.5809 81.5376 85.5377L81.5063 85.1008C80.9999 85.137 80.5387 84.9573 79.8634 84.7702C79.2024 84.587 78.3988 84.4221 77.2907 84.547L77.3398 84.9823ZM81.5379 85.5377C81.786 85.5196 81.9457 85.5556 82.0642 85.6111C82.1862 85.6681 82.2827 85.7536 82.399 85.8697C82.6345 86.1049 82.9138 86.4291 83.5402 86.5617L83.6309 86.1332C83.146 86.0305 82.9492 85.8001 82.7085 85.5598C82.5868 85.4382 82.4452 85.3056 82.2497 85.2142C82.0508 85.1212 81.8136 85.0784 81.5061 85.1008L81.5379 85.5377ZM83.5394 86.5615C83.7885 86.6153 83.9415 86.7037 84.0325 86.8007C84.1206 86.8948 84.1671 87.0145 84.1711 87.168C84.1795 87.4926 83.9961 87.94 83.6454 88.4474L84.0057 88.6964C84.3689 88.171 84.6211 87.6261 84.6089 87.1566C84.6026 86.9132 84.5247 86.6854 84.3521 86.5012C84.1823 86.3201 83.9383 86.1995 83.6318 86.1334L83.5394 86.5615ZM83.6459 88.4466C83.542 88.5956 83.4761 88.75 83.4752 88.9108C83.4743 89.077 83.5429 89.2156 83.6408 89.3293C83.7353 89.439 83.8632 89.533 84.0006 89.6189C84.1394 89.7057 84.3025 89.7928 84.4751 89.884C85.1717 90.2522 86.1003 90.7283 86.8206 91.7139L87.1743 91.4554C86.3873 90.3785 85.3715 89.8623 84.6798 89.4968C84.5053 89.4045 84.356 89.3245 84.2328 89.2474C84.1082 89.1696 84.0243 89.1033 83.9727 89.0434C83.9246 88.9876 83.913 88.9475 83.9132 88.9131C83.9134 88.8733 83.9299 88.8052 84.0052 88.6972L83.6459 88.4466ZM86.8206 91.7139C87.1865 92.2146 87.3647 92.5964 87.4463 92.9069C87.5271 93.2143 87.5171 93.466 87.4845 93.7178C87.4532 93.9605 87.3912 94.2481 87.3928 94.5526C87.3944 94.8724 87.4626 95.2229 87.676 95.6488L88.0676 95.4527C87.8835 95.085 87.8321 94.8007 87.8308 94.5503C87.8294 94.2846 87.8811 94.0666 87.9189 93.774C87.9556 93.4905 87.9702 93.1772 87.8699 92.7956C87.7705 92.4172 87.562 91.986 87.1743 91.4554L86.8206 91.7139ZM87.6759 95.6487C87.8761 96.0493 88.0766 96.3585 88.304 96.541C88.4215 96.6353 88.5518 96.7004 88.6965 96.7225C88.8416 96.7447 88.9847 96.7212 89.1235 96.6644C89.391 96.5551 89.6619 96.3139 89.9533 95.9853C90.2492 95.6516 90.5872 95.2027 90.9848 94.647L90.6286 94.3921C90.2321 94.9463 89.9052 95.3793 89.6256 95.6947C89.3415 96.0151 89.1264 96.19 88.9577 96.259C88.8784 96.2914 88.8158 96.2976 88.7627 96.2895C88.7093 96.2813 88.6488 96.2561 88.5781 96.1994C88.4292 96.0798 88.2634 95.8444 88.0677 95.4529L87.6759 95.6487ZM90.9849 94.6469C91.3628 94.1182 91.744 93.8142 92.1033 93.6227C92.4659 93.4293 92.8146 93.3453 93.1478 93.2657C93.4678 93.1892 93.8076 93.1116 94.0733 92.9096C94.3561 92.6947 94.5289 92.3644 94.5933 91.8502L94.1587 91.7958C94.1039 92.2334 93.9692 92.4386 93.8083 92.5609C93.6303 92.6961 93.3902 92.7574 93.046 92.8397C92.7151 92.9187 92.3153 93.0132 91.8972 93.2361C91.4758 93.4608 91.044 93.8109 90.6285 94.3922L90.9849 94.6469ZM94.5933 91.8502C94.707 90.9423 95.1654 89.9518 95.7234 89.3101C96.003 88.9886 96.292 88.7726 96.5564 88.6857C96.8073 88.6033 97.0384 88.6343 97.2525 88.8177L97.5375 88.485C97.1959 88.1925 96.8016 88.1441 96.4196 88.2696C96.051 88.3907 95.6994 88.6702 95.3929 89.0227C94.7789 89.7288 94.2834 90.8 94.1587 91.7958L94.5933 91.8502ZM97.2528 88.8179C97.3779 88.9247 97.4456 89.0125 97.4807 89.0862C97.5136 89.1554 97.5226 89.2221 97.5114 89.3C97.4995 89.3835 97.4638 89.4833 97.3984 89.6124C97.3331 89.7413 97.2455 89.886 97.138 90.0607C96.7072 90.7605 96.0352 91.8193 95.6713 93.6847L96.1012 93.7685C96.4496 91.9825 97.0876 90.9781 97.511 90.2903C97.617 90.118 97.7144 89.9581 97.7892 89.8103C97.8639 89.6627 97.9233 89.5138 97.945 89.3622C97.9676 89.2052 97.9489 89.0506 97.8762 88.8979C97.8056 88.7497 97.6899 88.6151 97.5372 88.4848L97.2528 88.8179ZM95.6713 93.6846C95.4951 94.5856 95.2886 95.1202 95.0868 95.4375C94.8909 95.7455 94.703 95.8443 94.5446 95.8837C94.4588 95.905 94.3724 95.9111 94.2784 95.9137C94.1934 95.9161 94.0799 95.9151 93.9819 95.9289C93.8763 95.9437 93.7562 95.9787 93.6527 96.0727C93.55 96.1658 93.4879 96.2947 93.4518 96.4501L93.8785 96.549C93.9021 96.4473 93.9318 96.4108 93.947 96.3971C93.9612 96.3841 93.985 96.3708 94.0429 96.3626C94.1086 96.3534 94.1785 96.3547 94.2906 96.3516C94.3937 96.3487 94.518 96.3416 94.6503 96.3087C94.9281 96.2396 95.2062 96.0661 95.4564 95.6726C95.7007 95.2885 95.9205 94.6926 96.1012 93.7686L95.6713 93.6846ZM93.4518 96.4502C93.3573 96.8588 93.6557 97.1647 93.9789 97.3443C94.3168 97.5321 94.7764 97.6449 95.2344 97.6607C95.6915 97.6765 96.177 97.5965 96.5564 97.3677C96.948 97.1315 97.2166 96.7407 97.2166 96.1817H96.7785C96.7785 96.5754 96.6008 96.8294 96.3302 96.9926C96.0476 97.1631 95.6553 97.2369 95.2495 97.2229C94.8446 97.2089 94.4562 97.1084 94.1917 96.9614C93.9124 96.8062 93.8538 96.6559 93.8786 96.5489L93.4518 96.4502ZM97.2166 96.1817C97.2166 95.7159 97.2556 95.324 97.3303 95.0255C97.407 94.7188 97.512 94.5485 97.6124 94.4756C97.6889 94.42 97.8003 94.3944 97.9995 94.501C98.2087 94.613 98.4791 94.8566 98.8102 95.2832L99.1562 95.0147C98.8116 94.5705 98.496 94.2699 98.2062 94.1148C97.9064 93.9543 97.6059 93.9388 97.3549 94.1212C97.1278 94.2862 96.9898 94.5817 96.9053 94.9192C96.8188 95.265 96.7785 95.6958 96.7785 96.1817H97.2166ZM98.8097 95.2826C99.1182 95.6833 99.2192 96.0528 99.2136 96.3927C99.2078 96.7389 99.0913 97.0725 98.9335 97.3973C98.8549 97.5592 98.7679 97.7151 98.6815 97.8682C98.5965 98.019 98.5101 98.1702 98.4394 98.3131C98.3057 98.5829 98.1834 98.9037 98.3031 99.2014L98.7095 99.038C98.6695 98.9384 98.6954 98.7831 98.8319 98.5075C98.8962 98.3777 98.9754 98.2388 99.063 98.0835C99.1494 97.9304 99.2424 97.764 99.3275 97.5887C99.4975 97.2389 99.6443 96.8382 99.6515 96.3999C99.6589 95.9553 99.5223 95.4901 99.1567 95.0153L98.8097 95.2826ZM98.3028 99.2006C98.3572 99.3374 98.4426 99.4454 98.5568 99.52C98.6687 99.5931 98.7948 99.6255 98.9192 99.6354C99.1605 99.6545 99.4372 99.5911 99.6964 99.5161C99.8292 99.4776 99.9652 99.4336 100.097 99.3912C100.23 99.3483 100.36 99.3069 100.484 99.2715C100.74 99.1988 100.949 99.1603 101.103 99.1757L101.147 98.7398C100.903 98.7155 100.625 98.7762 100.365 98.8501C100.231 98.8879 100.095 98.9317 99.9629 98.9742C99.8293 99.0172 99.6999 99.059 99.5746 99.0953C99.318 99.1696 99.1087 99.211 98.9538 99.1987C98.8801 99.1929 98.8304 99.1756 98.7964 99.1533C98.7648 99.1327 98.7341 99.0998 98.7098 99.0387L98.3028 99.2006ZM101.103 99.1756C101.387 99.2046 101.729 99.3899 102.089 99.7153C102.444 100.036 102.794 100.473 103.094 100.962C103.394 101.45 103.64 101.982 103.791 102.489C103.943 103 103.994 103.469 103.924 103.838L104.354 103.92C104.443 103.455 104.373 102.91 104.211 102.364C104.047 101.815 103.784 101.248 103.467 100.732C103.15 100.217 102.775 99.7451 102.383 99.3904C101.995 99.0401 101.568 98.7827 101.147 98.7398L101.103 99.1756ZM103.924 103.838C103.77 104.648 103.556 105.517 103.747 106.346C103.945 107.203 104.559 107.981 105.944 108.676L106.14 108.285C104.829 107.627 104.333 106.937 104.174 106.248C104.009 105.531 104.192 104.775 104.354 103.92L103.924 103.838ZM105.944 108.676C107.276 109.341 107.673 109.722 108.012 109.957C108.195 110.084 108.364 110.17 108.625 110.22C108.872 110.268 109.199 110.282 109.694 110.282V109.844C109.198 109.844 108.909 109.829 108.707 109.79C108.519 109.754 108.406 109.697 108.261 109.597C107.945 109.378 107.508 108.967 106.14 108.284L105.944 108.676ZM109.694 110.282C110.646 110.282 112.143 110.667 113.557 111.182C114.26 111.437 114.935 111.722 115.5 112.001C116.07 112.281 116.516 112.549 116.773 112.769L117.058 112.436C116.758 112.18 116.272 111.892 115.694 111.608C115.112 111.321 114.422 111.03 113.707 110.77C112.284 110.253 110.727 109.844 109.694 109.844V110.282ZM116.773 112.769C117.113 113.06 117.57 113.136 118.039 113.079C118.509 113.022 119.017 112.831 119.496 112.552C120.449 111.999 121.351 111.067 121.649 110.043L121.228 109.921C120.972 110.802 120.168 111.656 119.276 112.174C118.833 112.431 118.383 112.597 117.987 112.644C117.59 112.692 117.273 112.62 117.058 112.436L116.773 112.769ZM121.649 110.044C121.775 109.612 121.971 109.442 122.136 109.386C122.307 109.328 122.512 109.37 122.697 109.493C122.883 109.617 123.012 109.8 123.044 109.96C123.059 110.037 123.052 110.105 123.025 110.164C122.998 110.222 122.945 110.288 122.839 110.348L123.055 110.729C123.228 110.631 123.352 110.501 123.423 110.346C123.494 110.191 123.504 110.028 123.473 109.875C123.413 109.575 123.2 109.302 122.94 109.129C122.678 108.954 122.332 108.857 121.995 108.972C121.651 109.088 121.38 109.403 121.228 109.921L121.649 110.044ZM122.838 110.348C122.498 110.543 122.344 110.826 122.346 111.127C122.347 111.41 122.485 111.675 122.652 111.865C122.814 112.048 123.047 112.211 123.283 112.22C123.413 112.226 123.547 112.184 123.648 112.072C123.743 111.967 123.788 111.824 123.8 111.667L123.363 111.634C123.355 111.735 123.33 111.77 123.324 111.778C123.323 111.779 123.322 111.783 123.301 111.783C123.237 111.78 123.107 111.719 122.981 111.575C122.86 111.438 122.785 111.271 122.784 111.125C122.783 110.997 122.839 110.852 123.056 110.728L122.838 110.348ZM123.8 111.667C123.818 111.422 123.86 111.19 123.917 110.999C123.976 110.801 124.044 110.67 124.1 110.608C124.127 110.578 124.137 110.58 124.127 110.582C124.108 110.586 124.096 110.578 124.105 110.583C124.118 110.593 124.15 110.622 124.193 110.695C124.234 110.766 124.279 110.868 124.326 111.008L124.742 110.869C124.689 110.711 124.632 110.58 124.571 110.475C124.511 110.372 124.44 110.282 124.352 110.222C124.258 110.158 124.147 110.129 124.03 110.155C123.922 110.179 123.838 110.245 123.775 110.314C123.653 110.449 123.562 110.655 123.497 110.874C123.43 111.099 123.384 111.362 123.363 111.634L123.8 111.667ZM124.326 111.008C124.552 111.687 125.078 112.018 125.558 112.287C126.058 112.568 126.486 112.776 126.726 113.188L127.105 112.967C126.79 112.427 126.225 112.159 125.772 111.905C125.299 111.64 124.911 111.377 124.742 110.869L124.326 111.008ZM126.726 113.188C127.006 113.667 127.318 114.11 127.575 114.334C127.64 114.391 127.713 114.443 127.79 114.475C127.866 114.508 127.975 114.531 128.085 114.483C128.197 114.434 128.255 114.336 128.284 114.249C128.313 114.163 128.324 114.06 128.324 113.95H127.886C127.886 114.038 127.876 114.087 127.869 114.109C127.861 114.132 127.865 114.101 127.909 114.082C127.952 114.063 127.978 114.079 127.96 114.072C127.943 114.065 127.911 114.045 127.862 114.003C127.664 113.83 127.381 113.442 127.105 112.967L126.726 113.188ZM128.324 113.95C128.324 113.583 128.397 113.255 128.601 112.966C128.807 112.675 129.162 112.4 129.77 112.172L129.616 111.762C128.954 112.01 128.515 112.33 128.244 112.713C127.972 113.098 127.886 113.523 127.886 113.95H128.324ZM129.77 112.172C130.433 111.922 130.968 111.57 131.504 111.145C131.771 110.933 132.039 110.702 132.323 110.457C132.607 110.211 132.908 109.95 133.242 109.675L132.964 109.336C132.624 109.616 132.32 109.881 132.036 110.126C131.752 110.371 131.49 110.597 131.232 110.802C130.716 111.21 130.22 111.534 129.616 111.762L129.77 112.172ZM133.242 109.675C133.538 109.431 134.096 109.217 134.813 109.04C135.52 108.864 136.348 108.732 137.158 108.633C138.777 108.436 140.295 108.377 140.563 108.377V107.939C140.276 107.939 138.739 107.999 137.105 108.198C136.287 108.298 135.439 108.433 134.707 108.614C133.986 108.793 133.343 109.025 132.964 109.336L133.242 109.675ZM140.563 108.377C140.682 108.377 140.77 108.312 140.825 108.253C140.88 108.194 140.923 108.118 140.959 108.041C141.031 107.885 141.094 107.673 141.151 107.426C141.267 106.93 141.37 106.25 141.464 105.5C141.559 104.75 141.646 103.922 141.729 103.131C141.812 102.338 141.891 101.582 141.969 100.97L141.535 100.914C141.455 101.533 141.376 102.294 141.293 103.085C141.21 103.878 141.123 104.7 141.029 105.446C140.935 106.193 140.835 106.855 140.725 107.327C140.669 107.565 140.614 107.743 140.561 107.857C140.535 107.915 140.514 107.944 140.504 107.955C140.493 107.967 140.513 107.939 140.563 107.939V108.377ZM141.969 100.97C142.119 99.8085 142.675 99.1378 143.272 98.4031C143.87 97.6652 144.501 96.8705 144.667 95.4961L144.233 95.4435C144.082 96.6862 143.523 97.3979 142.931 98.1271C142.337 98.8594 141.703 99.6164 141.535 100.914L141.969 100.97ZM144.667 95.4962C144.821 94.2295 145.578 92.3953 146.399 90.8331C146.808 90.0558 147.227 89.3552 147.587 88.8367C147.767 88.577 147.929 88.3669 148.065 88.2167C148.134 88.1416 148.192 88.0846 148.241 88.0447C148.292 88.0024 148.321 87.9893 148.328 87.987L148.191 87.5709C148.108 87.598 148.031 87.6503 147.963 87.7061C147.892 87.7641 147.818 87.8378 147.741 87.9225C147.587 88.0922 147.413 88.3192 147.227 88.5871C146.855 89.1238 146.426 89.8405 146.012 90.6293C145.186 92.1995 144.397 94.093 144.233 95.4434L144.667 95.4962ZM148.329 87.9866C149.06 87.7416 150.537 86.9842 150.62 85.3301L150.182 85.3084C150.114 86.6701 148.89 87.3366 148.19 87.5713L148.329 87.9866ZM150.62 85.331C150.638 84.9939 150.754 84.6359 150.932 84.2498C151.109 83.863 151.339 83.4664 151.575 83.0449C152.037 82.2183 152.524 81.2979 152.524 80.3219H152.086C152.086 81.167 151.662 81.9913 151.192 82.8311C150.962 83.2429 150.721 83.6599 150.534 84.0669C150.346 84.4746 150.205 84.8907 150.182 85.3075L150.62 85.331ZM152.524 80.3219C152.524 79.4442 152.774 78.4798 153.013 77.646C153.131 77.2352 153.248 76.8502 153.324 76.5372C153.362 76.38 153.392 76.2336 153.406 76.1053C153.42 75.9815 153.422 75.8528 153.39 75.7417L152.97 75.8638C152.977 75.8908 152.983 75.9501 152.971 76.0564C152.959 76.1582 152.934 76.2842 152.898 76.434C152.825 76.7353 152.713 77.1035 152.592 77.5253C152.354 78.3567 152.086 79.3754 152.086 80.3219H152.524ZM153.39 75.7418C153.307 75.4535 153.118 74.9069 153.089 74.2738C153.061 73.6463 153.192 72.9576 153.735 72.3809L153.416 72.0806C152.767 72.7705 152.62 73.5905 152.652 74.2936C152.683 74.9912 152.892 75.5974 152.969 75.8636L153.39 75.7418ZM153.735 72.3808C154.42 71.6531 154.271 70.8513 154.077 70.2376C154.028 70.0856 153.975 69.9365 153.931 69.8072C153.885 69.6739 153.849 69.5593 153.827 69.459C153.783 69.2509 153.819 69.1867 153.869 69.1486L153.606 68.7985C153.34 68.9987 153.346 69.3018 153.399 69.5502C153.426 69.6782 153.47 69.8143 153.516 69.9489C153.563 70.0876 153.613 70.2239 153.659 70.3697C153.842 70.9474 153.929 71.5358 153.416 72.0807L153.735 72.3808ZM127.924 122.604C127.428 122.66 126.857 122.576 126.255 122.412C125.655 122.247 125.039 122.007 124.459 121.763C123.885 121.522 123.333 121.27 122.889 121.097C122.666 121.009 122.459 120.938 122.28 120.895C122.109 120.854 121.93 120.831 121.779 120.872L121.896 121.295C121.934 121.284 122.02 121.283 122.178 121.321C122.328 121.357 122.513 121.42 122.73 121.505C123.169 121.676 123.696 121.917 124.289 122.167C124.874 122.413 125.511 122.662 126.139 122.834C126.766 123.005 127.399 123.105 127.973 123.04L127.924 122.604ZM121.78 120.872C121.653 120.906 121.566 120.994 121.521 121.105C121.482 121.204 121.478 121.315 121.486 121.416C121.503 121.622 121.578 121.883 121.68 122.17C121.885 122.746 122.231 123.51 122.559 124.289C122.892 125.076 123.21 125.887 123.378 126.585C123.462 126.935 123.506 127.245 123.499 127.505C123.491 127.766 123.433 127.956 123.334 128.084L123.679 128.353C123.857 128.124 123.928 127.83 123.937 127.518C123.945 127.204 123.893 126.852 123.804 126.483C123.627 125.746 123.296 124.906 122.963 124.118C122.627 123.321 122.292 122.583 122.093 122.023C121.992 121.741 121.934 121.525 121.923 121.381C121.917 121.308 121.925 121.276 121.928 121.268C121.928 121.267 121.926 121.273 121.917 121.281C121.908 121.29 121.898 121.294 121.894 121.295L121.78 120.872ZM123.334 128.084C122.974 128.546 123.088 129.166 123.372 129.751C123.663 130.349 124.169 130.996 124.747 131.593C125.327 132.193 125.99 132.755 126.606 133.184C127.213 133.606 127.804 133.92 128.234 133.988L128.302 133.555C127.978 133.504 127.458 133.243 126.856 132.824C126.264 132.413 125.623 131.869 125.062 131.289C124.499 130.707 124.029 130.099 123.766 129.559C123.498 129.006 123.484 128.604 123.679 128.353L123.334 128.084ZM128.234 133.988C128.651 134.053 128.962 133.986 129.197 133.813C129.422 133.648 129.545 133.407 129.636 133.206C129.735 132.984 129.794 132.822 129.889 132.701C129.931 132.647 129.974 132.611 130.022 132.589C130.069 132.568 130.136 132.553 130.234 132.56L130.267 132.123C130.107 132.111 129.965 132.134 129.839 132.191C129.714 132.249 129.619 132.335 129.544 132.43C129.406 132.607 129.315 132.851 129.236 133.026C129.148 133.221 129.064 133.367 128.937 133.46C128.821 133.546 128.637 133.608 128.302 133.555L128.234 133.988ZM130.234 132.56C130.528 132.583 130.768 132.524 130.939 132.361C131.104 132.204 131.166 131.987 131.193 131.787C131.22 131.585 131.217 131.356 131.219 131.15C131.22 130.934 131.225 130.736 131.26 130.561L130.831 130.474C130.786 130.696 130.782 130.934 130.781 131.147C130.779 131.37 130.781 131.562 130.759 131.728C130.736 131.894 130.694 131.99 130.637 132.044C130.588 132.091 130.49 132.141 130.268 132.123L130.234 132.56ZM131.26 130.561C131.276 130.483 131.292 130.491 131.268 130.507C131.237 130.529 131.217 130.513 131.253 130.524C131.29 130.534 131.345 130.56 131.425 130.608C131.503 130.656 131.588 130.714 131.688 130.78C131.88 130.908 132.117 131.062 132.369 131.149C132.627 131.239 132.924 131.265 133.214 131.107L133.004 130.722C132.858 130.802 132.698 130.8 132.512 130.735C132.321 130.669 132.126 130.546 131.931 130.416C131.837 130.353 131.74 130.287 131.652 130.234C131.564 130.181 131.468 130.129 131.372 130.102C131.275 130.075 131.141 130.063 131.02 130.147C130.905 130.225 130.855 130.354 130.831 130.474L131.26 130.561ZM133.214 131.107C133.383 131.015 133.488 130.859 133.555 130.692C133.621 130.526 133.657 130.33 133.677 130.128C133.717 129.725 133.699 129.235 133.694 128.79C133.689 128.329 133.699 127.917 133.778 127.624C133.817 127.479 133.868 127.385 133.924 127.328C133.973 127.278 134.037 127.246 134.141 127.246V126.808C133.927 126.808 133.748 126.882 133.612 127.02C133.482 127.152 133.404 127.328 133.355 127.51C133.258 127.871 133.252 128.343 133.256 128.794C133.261 129.261 133.278 129.713 133.241 130.084C133.223 130.269 133.193 130.418 133.148 130.529C133.104 130.64 133.053 130.696 133.004 130.723L133.214 131.107ZM134.141 127.246C134.369 127.246 134.553 127.149 134.685 126.984C134.81 126.829 134.882 126.622 134.923 126.402C135.005 125.96 134.979 125.376 134.904 124.771C134.753 123.556 134.392 122.176 134.192 121.497L133.772 121.62C133.969 122.29 134.322 123.644 134.469 124.825C134.543 125.42 134.561 125.949 134.492 126.322C134.457 126.509 134.404 126.635 134.344 126.71C134.291 126.776 134.23 126.808 134.141 126.808V127.246ZM134.192 121.497C134.125 121.27 133.986 121.108 133.788 121.017C133.601 120.93 133.38 120.915 133.153 120.935C132.702 120.975 132.135 121.165 131.542 121.392C130.929 121.626 130.304 121.894 129.664 122.131C129.032 122.365 128.433 122.549 127.925 122.604L127.972 123.04C128.537 122.978 129.178 122.778 129.816 122.542C130.445 122.309 131.121 122.022 131.698 121.801C132.295 121.572 132.809 121.405 133.192 121.372C133.382 121.355 133.516 121.373 133.604 121.414C133.682 121.45 133.739 121.509 133.772 121.621L134.192 121.497Z" fill="#272727"/>
  </g>
  <defs>
    <filter id="filter0_d_592_20196" x="0.638244" y="0.152984" width="160.61" height="144.372" filterUnits="userSpaceOnUse" color-interpolation-filters="sRGB">
      <feFlood flood-opacity="0" result="BackgroundImageFix"/>
      <feColorMatrix in="SourceAlpha" type="matrix" values="0 0 0 0 0 0 0 0 0 0 0 0 0 0 0 0 0 0 127 0" result="hardAlpha"/>
      <feOffset dy="3.50424"/>
      <feGaussianBlur stdDeviation="3.50424"/>
      <feColorMatrix type="matrix" values="0 0 0 0 0 0 0 0 0 0 0 0 0 0 0 0 0 0 0.01 0"/>
      <feBlend mode="normal" in2="BackgroundImageFix" result="effect1_dropShadow_592_20196"/>
      <feBlend mode="normal" in="SourceGraphic" in2="effect1_dropShadow_592_20196" result="shape"/>
    </filter>
  </defs>
</svg>