<svg xmlns="http://www.w3.org/2000/svg" width="20" height="20" viewBox="0 0 20 20" fill="none">
  <path d="M1.6665 9.9987C1.6665 6.856 1.6665 5.28465 2.64281 4.30834C3.61913 3.33203 5.19047 3.33203 8.33317 3.33203H11.6665C14.8092 3.33203 16.3805 3.33203 17.3569 4.30834C18.3332 5.28465 18.3332 6.856 18.3332 9.9987C18.3332 13.1414 18.3332 14.7127 17.3569 15.6891C16.3805 16.6654 14.8092 16.6654 11.6665 16.6654H8.33317C5.19047 16.6654 3.61913 16.6654 2.64281 15.6891C1.6665 14.7127 1.6665 13.1414 1.6665 9.9987Z" stroke="#ffffff"/>
  <path d="M5 6.66797L6.79908 8.1672C8.32961 9.44264 9.09488 10.0804 10 10.0804C10.9051 10.0804 11.6704 9.44264 13.2009 8.1672L15 6.66797" stroke="#ffffff" stroke-linecap="round"/>
</svg>