<svg xmlns="http://www.w3.org/2000/svg" width="20" height="20" viewBox="0 0 20 20" fill="none">
  <path fill-rule="evenodd" clip-rule="evenodd" d="M2.64281 4.30834C1.6665 5.28465 1.6665 6.856 1.6665 9.9987C1.6665 13.1414 1.6665 14.7127 2.64281 15.6891C3.61913 16.6654 5.19047 16.6654 8.33317 16.6654H11.6665C14.8092 16.6654 16.3805 16.6654 17.3569 15.6891C18.3332 14.7127 18.3332 13.1414 18.3332 9.9987C18.3332 6.856 18.3332 5.28465 17.3569 4.30834C16.3805 3.33203 14.8092 3.33203 11.6665 3.33203H8.33317C5.19047 3.33203 3.61913 3.33203 2.64281 4.30834ZM15.48 6.26525C15.701 6.53042 15.6651 6.92453 15.4 7.1455L13.5696 8.67084C12.8309 9.28639 12.2322 9.7853 11.7039 10.1251C11.1534 10.4791 10.6174 10.7028 9.99984 10.7028C9.38227 10.7028 8.84623 10.4791 8.29582 10.1251C7.76743 9.7853 7.16876 9.28639 6.43013 8.67085L4.59972 7.1455C4.33455 6.92453 4.29872 6.53042 4.5197 6.26525C4.74068 6.00008 5.13478 5.96425 5.39995 6.18523L7.19903 7.68446C7.9765 8.33235 8.51628 8.78071 8.97199 9.0738C9.41312 9.35752 9.71228 9.45276 9.99984 9.45276C10.2874 9.45276 10.5866 9.35752 11.0277 9.0738C11.4834 8.78071 12.0232 8.33235 12.8006 7.68446L14.5997 6.18523C14.8649 5.96425 15.259 6.00008 15.48 6.26525Z" fill="#272727"/>
</svg>