<svg xmlns="http://www.w3.org/2000/svg" width="20" height="20" viewBox="0 0 20 20" fill="none">
  <g clip-path="url(#clip0_379_22381)">
    <path d="M1.6665 10.1712C1.6665 8.26421 1.6665 7.3107 2.09917 6.52025C2.53184 5.72981 3.32229 5.23923 4.9032 4.25807L6.56986 3.22369C8.24099 2.18654 9.07656 1.66797 9.99984 1.66797C10.9231 1.66797 11.7587 2.18654 13.4298 3.22369L15.0965 4.25807C16.6774 5.23923 17.4678 5.72981 17.9005 6.52025C18.3332 7.3107 18.3332 8.26421 18.3332 10.1712V11.4388C18.3332 14.6895 18.3332 16.3149 17.3569 17.3248C16.3805 18.3346 14.8092 18.3346 11.6665 18.3346H8.33317C5.19047 18.3346 3.61913 18.3346 2.64281 17.3248C1.6665 16.3149 1.6665 14.6895 1.6665 11.4388V10.1712Z" stroke="#272727" stroke-width="1.5"/>
    <path d="M12.5 15H7.5" stroke="#272727" stroke-width="1.5" stroke-linecap="round"/>
  </g>
  <defs>
    <clipPath id="clip0_379_22381">
      <rect width="20" height="20" fill="white"/>
    </clipPath>
  </defs>
</svg>