<svg xmlns="http://www.w3.org/2000/svg" width="20" height="20" viewBox="0 0 20 20" fill="none">
  <path fill-rule="evenodd" clip-rule="evenodd" d="M2.09917 6.52025C1.6665 7.3107 1.6665 8.26421 1.6665 10.1712V11.4388C1.6665 14.6895 1.6665 16.3149 2.64281 17.3248C3.61913 18.3346 5.19047 18.3346 8.33317 18.3346H11.6665C14.8092 18.3346 16.3805 18.3346 17.3569 17.3248C18.3332 16.3149 18.3332 14.6895 18.3332 11.4388V10.1712C18.3332 8.26421 18.3332 7.3107 17.9005 6.52025C17.4678 5.72981 16.6774 5.23923 15.0965 4.25807L13.4298 3.22369C11.7587 2.18654 10.9231 1.66797 9.99984 1.66797C9.07656 1.66797 8.24099 2.18654 6.56986 3.22369L4.9032 4.25807C3.32229 5.23923 2.53184 5.72981 2.09917 6.52025ZM7.49984 14.3763C7.15466 14.3763 6.87484 14.6561 6.87484 15.0013C6.87484 15.3465 7.15466 15.6263 7.49984 15.6263H12.4998C12.845 15.6263 13.1248 15.3465 13.1248 15.0013C13.1248 14.6561 12.845 14.3763 12.4998 14.3763H7.49984Z" fill="#272727"/>
</svg>