<svg xmlns="http://www.w3.org/2000/svg" width="20" height="20" viewBox="0 0 20 20" fill="none">
  <path d="M1.6665 13.332C1.6665 10.975 1.6665 9.7965 2.39874 9.06426C3.13097 8.33203 4.30948 8.33203 6.6665 8.33203H13.3332C15.6902 8.33203 16.8687 8.33203 17.6009 9.06426C18.3332 9.7965 18.3332 10.975 18.3332 13.332C18.3332 15.6891 18.3332 16.8676 17.6009 17.5998C16.8687 18.332 15.6902 18.332 13.3332 18.332H6.6665C4.30948 18.332 3.13097 18.332 2.39874 17.5998C1.6665 16.8676 1.6665 15.6891 1.6665 13.332Z" fill="#272727"/>
  <path d="M5 8.33464V6.66797C5 3.90655 7.23858 1.66797 10 1.66797C12.7614 1.66797 15 3.90655 15 6.66797V8.33464" stroke="#272727" stroke-linecap="round"/>
</svg>