<svg xmlns="http://www.w3.org/2000/svg" width="20" height="20" viewBox="0 0 20 20" fill="none">
  <path d="M7.50146 5.83464C7.51155 4.02211 7.59193 3.04052 8.23225 2.4002C8.96448 1.66797 10.143 1.66797 12.5 1.66797L13.3334 1.66797C15.6904 1.66797 16.8689 1.66797 17.6011 2.4002C18.3334 3.13243 18.3333 4.31095 18.3333 6.66797L18.3333 13.3346C18.3333 15.6917 18.3334 16.8702 17.6011 17.6024C16.8689 18.3346 15.6904 18.3346 13.3333 18.3346L12.5 18.3346C10.143 18.3346 8.96448 18.3346 8.23225 17.6024C7.59193 16.9621 7.51155 15.9805 7.50146 14.168" stroke="#ffffff" stroke-linecap="round"/>
  <path d="M12.5 10L1.66667 10M1.66667 10L4.58333 7.5M1.66667 10L4.58333 12.5" stroke="#ffffff" stroke-linecap="round" stroke-linejoin="round"/>
</svg>