<svg xmlns="http://www.w3.org/2000/svg" width="18" height="18" viewBox="0 0 18 18" fill="none">
  <path d="M15.6085 8.89755L15.1818 8.63689L15.6085 8.89755ZM9.27721 2.63504L9.02069 2.20586V2.20586L9.27721 2.63504ZM15.7702 8.99801C15.7702 12.5924 12.8229 15.5156 9.17565 15.5156V16.5156C13.3649 16.5156 16.7702 13.155 16.7702 8.99801H15.7702ZM9.17565 15.5156C5.52839 15.5156 2.58105 12.5924 2.58105 8.99801H1.58105C1.58105 13.155 4.98643 16.5156 9.17565 16.5156V15.5156ZM2.58105 8.99801C2.58105 5.40361 5.52839 2.48047 9.17565 2.48047V1.48047C4.98643 1.48047 1.58105 4.84105 1.58105 8.99801H2.58105ZM11.6588 10.6033C9.38288 10.6033 7.54727 8.77979 7.54727 6.54187H6.54727C6.54727 9.34234 8.84092 11.6033 11.6588 11.6033V10.6033ZM15.1818 8.63689C14.4622 9.81488 13.1545 10.6033 11.6588 10.6033V11.6033C13.5138 11.6033 15.1396 10.6241 16.0352 9.15821L15.1818 8.63689ZM7.54727 6.54187C7.54727 5.06951 8.34045 3.77744 9.53373 3.06422L9.02069 2.20586C7.54104 3.09024 6.54727 4.69978 6.54727 6.54187H7.54727ZM9.17565 2.48047C9.12339 2.48047 9.0587 2.45676 9.01084 2.40749C8.97043 2.36588 8.96146 2.32693 8.95948 2.31242C8.95722 2.29588 8.95752 2.24361 9.02069 2.20586L9.53373 3.06422C9.87786 2.85854 9.9915 2.47899 9.95029 2.17714C9.90732 1.8624 9.65921 1.48047 9.17565 1.48047V2.48047ZM16.0352 9.15821C16.0161 9.18944 15.9907 9.20572 15.9747 9.21233C15.9612 9.21793 15.9496 9.21912 15.9368 9.21741C15.9253 9.21587 15.8879 9.20822 15.8463 9.16871C15.7964 9.12132 15.7702 9.05481 15.7702 8.99801H16.7702C16.7702 8.50807 16.377 8.26732 16.0692 8.22621C15.7716 8.18645 15.3908 8.29482 15.1818 8.63689L16.0352 9.15821Z" fill="#272727"/>
</svg>