<svg xmlns="http://www.w3.org/2000/svg" width="20" height="20" viewBox="0 0 20 20" fill="none">
  <path d="M10 7.5C8.61929 7.5 7.5 6.38071 7.5 5C7.5 3.61929 8.61929 2.5 10 2.5C11.3807 2.5 12.5 3.61929 12.5 5C12.5 6.38071 11.3807 7.5 10 7.5Z" fill="#272727"/>
  <path d="M4.5835 17.5C3.20278 17.5 2.0835 16.3807 2.0835 15C2.0835 13.6193 3.20278 12.5 4.5835 12.5C5.96421 12.5 7.0835 13.6193 7.0835 15C7.0835 16.3807 5.96421 17.5 4.5835 17.5Z" fill="#272727"/>
  <path d="M15.4165 17.5C14.0358 17.5 12.9165 16.3807 12.9165 15C12.9165 13.6193 14.0358 12.5 15.4165 12.5C16.7972 12.5 17.9165 13.6193 17.9165 15C17.9165 16.3807 16.7972 17.5 15.4165 17.5Z" fill="#272727"/>
  <path d="M16.6668 10.8321C16.6668 8.84089 15.7939 7.05361 14.4098 5.83203M3.3335 10.8321C3.3335 8.84089 4.20643 7.05361 5.59048 5.83203M8.3335 17.2887C8.8662 17.4258 9.42466 17.4987 10.0002 17.4987C10.5757 17.4987 11.1341 17.4258 11.6668 17.2887" stroke="#272727" stroke-linecap="round"/>
</svg>