<svg xmlns="http://www.w3.org/2000/svg" width="20" height="20" viewBox="0 0 20 20" fill="none">
  <path d="M19.472 7.43529L19.4724 7.43644C19.5065 7.54144 19.5091 7.65416 19.4797 7.76059L19.9617 7.89357L19.4797 7.7606C19.4503 7.86704 19.3904 7.9625 19.3072 8.03514L19.3065 8.03578L14.9431 11.8617L14.7192 12.058L14.7852 12.3483L16.0718 18.016L16.0719 18.0163C16.0964 18.124 16.0887 18.2366 16.0497 18.3399C16.0108 18.4433 15.9423 18.533 15.8528 18.5977L15.8526 18.5979C15.6694 18.7307 15.4272 18.7407 15.2354 18.6253L15.2342 18.6246L10.2567 15.6486L10.0001 15.4952L9.74357 15.6486L4.76422 18.6246L4.76407 18.6247C4.67304 18.6791 4.5742 18.7054 4.47581 18.7054C4.36114 18.7054 4.24628 18.6699 4.14615 18.5975C3.9636 18.4656 3.87733 18.2381 3.92761 18.0155L5.21416 12.3483L5.28007 12.058L5.05624 11.8617L0.69285 8.03503L0.691902 8.0342C0.522727 7.88659 0.457794 7.65181 0.527847 7.43635L0.528015 7.43583C0.561967 7.33102 0.625934 7.23848 0.711987 7.16968C0.79799 7.10092 0.902273 7.0589 1.01192 7.04881C1.01198 7.04881 1.01205 7.0488 1.01211 7.0488L6.78518 6.52468L7.08246 6.49769L7.19976 6.22319L9.48215 0.881986C9.48221 0.881862 9.48226 0.881738 9.48231 0.881614C9.57221 0.672355 9.77521 0.539075 10.0001 0.539075C10.2251 0.539075 10.4282 0.672528 10.5181 0.88109C10.5182 0.881221 10.5182 0.881353 10.5183 0.881485L12.8004 6.22312L12.9177 6.49764L13.215 6.52464L18.9876 7.04883L18.9882 7.04889C19.0979 7.0587 19.2022 7.10058 19.2882 7.16929C19.3743 7.238 19.4382 7.33051 19.472 7.43529Z" stroke="#ADADAD" stroke-width="1.00003"/>
</svg>