<svg xmlns="http://www.w3.org/2000/svg" width="20" height="20" viewBox="0 0 20 20" fill="none">
  <path d="M17.5559 9.882L17.1279 9.62342V9.62342L17.5559 9.882ZM10.1191 2.44527L9.86055 2.01733V2.01733L10.1191 2.44527ZM17.8332 10.0013C17.8332 14.3275 14.3261 17.8346 9.99984 17.8346V18.8346C14.8784 18.8346 18.8332 14.8798 18.8332 10.0013H17.8332ZM9.99984 17.8346C5.67361 17.8346 2.1665 14.3275 2.1665 10.0013H1.1665C1.1665 14.8798 5.12132 18.8346 9.99984 18.8346V17.8346ZM2.1665 10.0013C2.1665 5.67507 5.67361 2.16797 9.99984 2.16797V1.16797C5.12132 1.16797 1.1665 5.12279 1.1665 10.0013H2.1665ZM12.9165 12.0013C10.2011 12.0013 7.99984 9.80004 7.99984 7.08464H6.99984C6.99984 10.3523 9.64882 13.0013 12.9165 13.0013V12.0013ZM17.1279 9.62342C16.2661 11.0496 14.7022 12.0013 12.9165 12.0013V13.0013C15.0667 13.0013 16.9485 11.854 17.9838 10.1406L17.1279 9.62342ZM7.99984 7.08464C7.99984 5.29893 8.9515 3.73501 10.3777 2.87321L9.86055 2.01733C8.14713 3.05268 6.99984 4.93443 6.99984 7.08464H7.99984ZM9.99984 2.16797C9.98442 2.16797 9.96053 2.16482 9.9332 2.15317C9.90607 2.14161 9.88365 2.12512 9.86698 2.10777C9.83545 2.07495 9.83233 2.04876 9.83233 2.04876C9.83216 2.04755 9.8319 2.04857 9.8327 2.04666C9.83456 2.04222 9.84248 2.02825 9.86055 2.01733L10.3777 2.87321C10.7461 2.65059 10.8673 2.24061 10.8233 1.91492C10.7778 1.5777 10.5161 1.16797 9.99984 1.16797V2.16797ZM17.9838 10.1406C17.9729 10.1587 17.9589 10.1666 17.9545 10.1684C17.9526 10.1692 17.9536 10.169 17.9524 10.1688C17.9524 10.1688 17.9262 10.1657 17.8934 10.1342C17.876 10.1175 17.8595 10.0951 17.848 10.0679C17.8363 10.0406 17.8332 10.0167 17.8332 10.0013H18.8332C18.8332 9.48499 18.4234 9.22335 18.0862 9.17781C17.7605 9.13382 17.3505 9.255 17.1279 9.62342L17.9838 10.1406Z" fill="#272727"/>
</svg>