<svg width="104" height="20" viewBox="0 0 104 20" fill="none" xmlns="http://www.w3.org/2000/svg">
<g clip-path="url(#clip0_379_27212)">
<path d="M19.9478 7.28175C19.8839 7.08355 19.763 6.90857 19.6003 6.7786C19.4376 6.64863 19.2402 6.56943 19.0328 6.55087L13.2602 6.02668L10.9776 0.683962C10.8092 0.292428 10.426 0.0390625 10.0001 0.0390625C9.57422 0.0390625 9.19089 0.292467 9.0226 0.684938L6.73997 6.02671L0.9665 6.55087C0.759313 6.56985 0.562253 6.64922 0.39975 6.77914C0.237248 6.90906 0.116451 7.08382 0.052336 7.28175C-0.079347 7.68676 0.0422577 8.13095 0.363164 8.41095L4.72656 12.2376L3.43988 17.9053C3.34574 18.3221 3.50746 18.7529 3.85325 19.0028C4.03908 19.1371 4.25654 19.2054 4.47581 19.2054C4.66488 19.2054 4.85238 19.1545 5.02074 19.0538L10.0001 16.0778L14.9776 19.0538C15.3419 19.2729 15.801 19.2529 16.146 19.0028C16.3149 18.8805 16.4442 18.7113 16.5177 18.5162C16.5912 18.3211 16.6057 18.1086 16.5594 17.9053L15.2728 12.2376L19.6361 8.41174C19.7931 8.27465 19.9063 8.09446 19.9617 7.89357C20.0171 7.69267 20.0123 7.47992 19.9478 7.28175Z" fill="#B34DD0"/>
</g>
<g clip-path="url(#clip1_379_27212)">
<path d="M47.9478 7.28175C47.8839 7.08355 47.763 6.90857 47.6003 6.7786C47.4376 6.64863 47.2402 6.56943 47.0328 6.55087L41.2602 6.02668L38.9776 0.683962C38.8092 0.292428 38.426 0.0390625 38.0001 0.0390625C37.5742 0.0390625 37.1909 0.292467 37.0226 0.684938L34.74 6.02671L28.9665 6.55087C28.7593 6.56985 28.5623 6.64922 28.3998 6.77914C28.2372 6.90906 28.1165 7.08382 28.0523 7.28175C27.9207 7.68676 28.0423 8.13095 28.3632 8.41095L32.7266 12.2376L31.4399 17.9053C31.3457 18.3221 31.5075 18.7529 31.8533 19.0028C32.0391 19.1371 32.2565 19.2054 32.4758 19.2054C32.6649 19.2054 32.8524 19.1545 33.0207 19.0538L38.0001 16.0778L42.9776 19.0538C43.3419 19.2729 43.801 19.2529 44.146 19.0028C44.3149 18.8805 44.4442 18.7113 44.5177 18.5162C44.5912 18.3211 44.6057 18.1086 44.5594 17.9053L43.2728 12.2376L47.6361 8.41174C47.7931 8.27465 47.9063 8.09446 47.9617 7.89357C48.0171 7.69267 48.0123 7.47992 47.9478 7.28175Z" fill="#B34DD0"/>
</g>
<g clip-path="url(#clip2_379_27212)">
<path d="M75.9478 7.28175C75.8839 7.08355 75.763 6.90857 75.6003 6.7786C75.4376 6.64863 75.2402 6.56943 75.0328 6.55087L69.2602 6.02668L66.9776 0.683962C66.8092 0.292428 66.426 0.0390625 66.0001 0.0390625C65.5742 0.0390625 65.1909 0.292467 65.0226 0.684938L62.74 6.02671L56.9665 6.55087C56.7593 6.56985 56.5623 6.64922 56.3998 6.77914C56.2372 6.90906 56.1165 7.08382 56.0523 7.28175C55.9207 7.68676 56.0423 8.13095 56.3632 8.41095L60.7266 12.2376L59.4399 17.9053C59.3457 18.3221 59.5075 18.7529 59.8533 19.0028C60.0391 19.1371 60.2565 19.2054 60.4758 19.2054C60.6649 19.2054 60.8524 19.1545 61.0207 19.0538L66.0001 16.0778L70.9776 19.0538C71.3419 19.2729 71.801 19.2529 72.146 19.0028C72.3149 18.8805 72.4442 18.7113 72.5177 18.5162C72.5912 18.3211 72.6057 18.1086 72.5594 17.9053L71.2728 12.2376L75.6361 8.41174C75.7931 8.27465 75.9063 8.09446 75.9617 7.89357C76.0171 7.69267 76.0123 7.47992 75.9478 7.28175Z" fill="#B34DD0"/>
</g>
<g clip-path="url(#clip3_379_27212)">
<path d="M103.948 7.28175C103.884 7.08355 103.763 6.90857 103.6 6.7786C103.438 6.64863 103.24 6.56943 103.033 6.55087L97.2602 6.02668L94.9776 0.683962C94.8092 0.292428 94.426 0.0390625 94.0001 0.0390625C93.5742 0.0390625 93.1909 0.292467 93.0226 0.684938L90.74 6.02671L84.9665 6.55087C84.7593 6.56985 84.5623 6.64922 84.3998 6.77914C84.2372 6.90906 84.1165 7.08382 84.0523 7.28175C83.9207 7.68676 84.0423 8.13095 84.3632 8.41095L88.7266 12.2376L87.4399 17.9053C87.3457 18.3221 87.5075 18.7529 87.8533 19.0028C88.0391 19.1371 88.2565 19.2054 88.4758 19.2054C88.6649 19.2054 88.8524 19.1545 89.0207 19.0538L94.0001 16.0778L98.9776 19.0538C99.3419 19.2729 99.801 19.2529 100.146 19.0028C100.315 18.8805 100.444 18.7113 100.518 18.5162C100.591 18.3211 100.606 18.1086 100.559 17.9053L99.2728 12.2376L103.636 8.41174C103.793 8.27465 103.906 8.09446 103.962 7.89357C104.017 7.69267 104.012 7.47992 103.948 7.28175Z" fill="#B34DD0"/>
</g>
<defs>
<clipPath id="clip0_379_27212">
<rect width="20" height="20" fill="white"/>
</clipPath>
<clipPath id="clip1_379_27212">
<rect width="20" height="20" fill="white" transform="translate(28)"/>
</clipPath>
<clipPath id="clip2_379_27212">
<rect width="20" height="20" fill="white" transform="translate(56)"/>
</clipPath>
<clipPath id="clip3_379_27212">
<rect width="20" height="20" fill="white" transform="translate(84)"/>
</clipPath>
</defs>
</svg>
